<?xml version="1.0" standalone="no"?>
<!DOCTYPE svg PUBLIC "-//W3C//DTD SVG 20010904//EN"
 "http://www.w3.org/TR/2001/REC-SVG-20010904/DTD/svg10.dtd">
<svg version="1.0" xmlns="http://www.w3.org/2000/svg"
 width="2882.000000pt" height="1604.000000pt" viewBox="0 0 2882.000000 1604.000000"
 preserveAspectRatio="xMidYMid meet">

<g transform="translate(0.000000,1604.000000) scale(0.100000,-0.100000)"
fill="#000000" stroke="none">
<path d="M0 16031 c0 -8 69 -11 238 -12 242 0 743 -5 1412 -14 821 -12 951
-12 955 -4 3 4 -81 8 -187 9 -372 3 -874 10 -938 14 -36 2 -383 7 -772 11
-520 6 -708 4 -708 -4z"/>
<path d="M2648 16000 c18 -4 43 -5 54 -2 12 3 19 1 16 -4 -4 -5 14 -7 39 -5
70 5 33 17 -59 18 -61 1 -74 -1 -50 -7z"/>
<path d="M2870 16001 c-49 -6 -52 -7 -25 -14 17 -3 56 -3 88 1 35 6 57 5 57
-1 0 -5 6 -4 14 2 9 7 17 8 20 2 7 -11 96 -13 96 -1 0 18 -129 24 -250 11z"/>
<path d="M3136 15995 c4 -8 8 -15 10 -15 2 0 4 7 4 15 0 8 -4 15 -10 15 -5 0
-7 -7 -4 -15z"/>
<path d="M3320 16000 c0 -7 -27 -9 -81 -5 -53 4 -79 3 -75 -3 4 -6 78 -10 184
-11 100 0 168 3 157 8 -11 4 -49 7 -85 6 -36 -1 -73 2 -82 7 -12 6 -18 5 -18
-2z"/>
<path d="M3554 15988 c-3 -4 39 -8 92 -8 54 0 95 3 91 6 -9 9 -178 11 -183 2z"/>
<path d="M3870 15989 c-14 -4 58 -7 159 -8 101 -1 182 2 179 5 -9 9 -310 12
-338 3z"/>
<path d="M3773 15983 c9 -2 23 -2 30 0 6 3 -1 5 -18 5 -16 0 -22 -2 -12 -5z"/>
<path d="M4230 15982 c0 -5 14 -7 30 -4 17 2 30 6 30 8 0 2 -13 4 -30 4 -16 0
-30 -4 -30 -8z"/>
<path d="M4303 15984 c7 -7 209 -6 216 2 2 2 -47 4 -109 4 -62 0 -111 -3 -107
-6z"/>
<path d="M4536 15978 c3 -5 10 -6 15 -3 13 9 11 12 -6 12 -8 0 -12 -4 -9 -9z"/>
<path d="M4570 15982 c0 -7 231 -4 239 4 2 2 -50 4 -117 4 -67 0 -122 -3 -122
-8z"/>
<path d="M5043 15983 c9 -2 23 -2 30 0 6 3 -1 5 -18 5 -16 0 -22 -2 -12 -5z"/>
<path d="M5104 15981 c18 -7 66 -3 66 5 0 2 -19 4 -42 3 -31 0 -37 -3 -24 -8z"/>
<path d="M5705 15970 c19 -8 83 -14 74 -6 -2 2 -24 6 -49 9 -30 4 -38 3 -25
-3z"/>
<path d="M5795 15970 c3 -5 11 -10 16 -10 6 0 7 5 4 10 -3 6 -11 10 -16 10 -6
0 -7 -4 -4 -10z"/>
<path d="M5960 15970 c-11 -7 -4 -10 25 -10 29 0 36 3 25 10 -8 5 -19 10 -25
10 -5 0 -17 -5 -25 -10z"/>
<path d="M6065 15970 l-40 -7 40 -1 c22 -1 47 3 55 8 18 12 10 12 -55 0z"/>
<path d="M6216 15971 c-3 -4 36 -8 87 -10 51 -1 89 0 86 4 -10 9 -168 15 -173
6z"/>
<path d="M6548 15963 c7 -3 16 -2 19 1 4 3 -2 6 -13 5 -11 0 -14 -3 -6 -6z"/>
<path d="M6774 15958 c10 -6 22 -6 26 -2 5 5 -3 10 -18 11 -22 1 -24 0 -8 -9z"/>
<path d="M6958 15963 c6 -2 18 -2 25 0 6 3 1 5 -13 5 -14 0 -19 -2 -12 -5z"/>
<path d="M7128 15963 c6 -2 18 -2 25 0 6 3 1 5 -13 5 -14 0 -19 -2 -12 -5z"/>
<path d="M7255 15960 c-7 -11 9 -11 45 0 24 8 24 8 -7 9 -17 1 -35 -3 -38 -9z"/>
<path d="M7661 15956 c12 -10 60 -16 54 -6 -3 5 -18 10 -32 10 -15 0 -24 -2
-22 -4z"/>
<path d="M7835 15950 c-15 -6 -11 -8 16 -7 21 1 35 5 32 10 -5 9 -22 8 -48 -3z"/>
<path d="M7908 15953 c7 -3 16 -2 19 1 4 3 -2 6 -13 5 -11 0 -14 -3 -6 -6z"/>
<path d="M8035 15950 c3 -5 19 -10 36 -10 16 0 29 5 29 10 0 6 -16 10 -36 10
-21 0 -33 -4 -29 -10z"/>
<path d="M8178 15953 c6 -2 18 -2 25 0 6 3 1 5 -13 5 -14 0 -19 -2 -12 -5z"/>
<path d="M8525 15950 c-14 -6 0 -8 45 -8 50 0 58 2 35 8 -40 10 -56 10 -80 0z"/>
<path d="M8654 15952 c2 -4 19 -8 38 -9 27 -2 29 0 13 7 -25 11 -58 12 -51 2z"/>
<path d="M8805 15950 c-75 -5 -72 -6 60 -10 77 -3 165 -2 195 1 44 5 35 6 -47
7 -56 1 -107 3 -115 5 -7 2 -49 0 -93 -3z"/>
<path d="M8313 15943 c9 -2 23 -2 30 0 6 3 -1 5 -18 5 -16 0 -22 -2 -12 -5z"/>
<path d="M8368 15943 c7 -3 16 -2 19 1 4 3 -2 6 -13 5 -11 0 -14 -3 -6 -6z"/>
<path d="M9208 15943 c6 -2 18 -2 25 0 6 3 1 5 -13 5 -14 0 -19 -2 -12 -5z"/>
<path d="M9315 15939 c-15 -6 -11 -8 18 -8 20 -1 37 1 37 3 0 9 -37 12 -55 5z"/>
<path d="M9415 15940 c-18 -8 -17 -9 8 -9 16 -1 26 3 22 9 -3 6 -7 10 -8 9 -1
0 -11 -4 -22 -9z"/>
<path d="M9480 15940 c33 -11 50 -12 50 -2 0 4 -17 8 -38 9 -32 1 -33 0 -12
-7z"/>
<path d="M9554 15938 c-3 -5 28 -7 68 -7 75 2 69 6 -15 11 -27 2 -51 0 -53 -4z"/>
<path d="M9798 15933 c12 -2 32 -2 45 0 12 2 2 4 -23 4 -25 0 -35 -2 -22 -4z"/>
<path d="M9873 15934 c10 -10 277 -13 282 -3 4 5 -53 9 -140 8 -81 0 -145 -3
-142 -5z"/>
<path d="M10244 15928 c-3 -4 19 -8 48 -7 57 1 55 5 -5 11 -21 2 -40 0 -43 -4z"/>
<path d="M10188 15923 c6 -2 18 -2 25 0 6 3 1 5 -13 5 -14 0 -19 -2 -12 -5z"/>
<path d="M10408 15923 c34 -2 90 -2 125 0 34 2 6 3 -63 3 -69 0 -97 -1 -62 -3z"/>
<path d="M10855 15920 c-4 -6 5 -10 20 -10 15 0 24 4 20 10 -3 6 -12 10 -20
10 -8 0 -17 -4 -20 -10z"/>
<path d="M10960 15919 c0 -12 81 -15 90 -4 6 8 -6 11 -40 10 -28 0 -50 -3 -50
-6z"/>
<path d="M11072 15915 c9 -9 198 -13 204 -4 3 5 -43 9 -102 9 -59 0 -105 -2
-102 -5z"/>
<path d="M11291 15917 c9 -9 99 -16 99 -8 0 4 -23 9 -52 10 -28 1 -50 0 -47
-2z"/>
<path d="M11625 15910 c-3 -5 1 -10 10 -10 9 0 13 5 10 10 -3 6 -8 10 -10 10
-2 0 -7 -4 -10 -10z"/>
<path d="M11675 15909 c-4 -5 14 -9 41 -9 55 0 55 5 2 13 -21 3 -40 1 -43 -4z"/>
<path d="M11805 15910 c-3 -5 -5 -10 -3 -11 29 -5 466 -6 448 -1 -14 5 -115 9
-224 11 -110 1 -203 4 -207 7 -4 2 -10 0 -14 -6z"/>
<path d="M12370 15900 c-114 -7 -74 -11 163 -13 97 -1 177 1 177 6 0 4 -49 7
-109 7 -60 0 -115 1 -123 3 -7 2 -56 0 -108 -3z"/>
<path d="M12724 15891 c3 -4 29 -8 58 -10 29 -1 49 1 46 5 -9 9 -109 14 -104
5z"/>
<path d="M12885 15889 c-48 -6 -47 -6 23 -7 39 -1 72 1 72 6 0 9 -30 9 -95 1z"/>
<path d="M12995 15880 c3 -5 13 -10 21 -10 8 0 14 5 14 10 0 6 -9 10 -21 10
-11 0 -17 -4 -14 -10z"/>
<path d="M13040 15886 c0 -2 7 -6 15 -10 8 -3 15 -1 15 4 0 6 -7 10 -15 10 -8
0 -15 -2 -15 -4z"/>
<path d="M13094 15883 c10 -11 176 -12 176 -1 0 4 -41 8 -92 8 -50 0 -88 -3
-84 -7z"/>
<path d="M13285 15880 c-8 -13 25 -13 45 0 12 8 9 10 -12 10 -15 0 -30 -4 -33
-10z"/>
<path d="M13360 15881 c0 -8 62 -11 202 -11 111 0 199 2 197 4 -2 2 -93 7
-201 11 -141 5 -198 4 -198 -4z"/>
<path d="M13778 15873 c7 -3 16 -2 19 1 4 3 -2 6 -13 5 -11 0 -14 -3 -6 -6z"/>
<path d="M13811 15876 c2 -3 27 -7 54 -11 28 -3 58 -8 68 -11 11 -3 17 0 17
10 0 13 -13 16 -72 16 -39 0 -69 -2 -67 -4z"/>
<path d="M13965 15870 c3 -5 8 -10 11 -10 2 0 4 5 4 10 0 6 -5 10 -11 10 -5 0
-7 -4 -4 -10z"/>
<path d="M14000 15872 c0 -6 8 -11 18 -11 120 1 1216 -12 1270 -15 40 -3 72 0
72 5 0 10 -49 11 -545 14 -187 1 -447 5 -577 10 -165 5 -238 4 -238 -3z"/>
<path d="M15497 15850 c72 -4 149 -4 170 0 22 5 -32 8 -132 7 l-170 0 132 -7z"/>
<path d="M15725 15851 c-3 -6 42 -9 115 -9 69 1 116 5 108 9 -18 12 -215 11
-223 0z"/>
<path d="M16030 15849 c-55 -7 -34 -12 40 -9 30 1 59 6 64 10 9 9 -30 9 -104
-1z"/>
<path d="M16150 15850 c0 -5 11 -10 25 -10 14 0 25 5 25 10 0 6 -11 10 -25 10
-14 0 -25 -4 -25 -10z"/>
<path d="M16234 15848 c-3 -4 -4 -8 -2 -9 18 -5 371 -9 366 -4 -6 7 -49 9
-291 19 -38 1 -70 -2 -73 -6z"/>
<path d="M16610 15839 c0 -5 117 -9 272 -9 149 0 269 2 267 4 -9 9 -539 14
-539 5z"/>
<path d="M17213 15827 c42 -7 62 -6 70 2 8 8 -7 11 -58 10 l-70 -2 58 -10z"/>
<path d="M17301 15836 c11 -9 149 -15 149 -6 0 6 -32 10 -77 10 -42 0 -74 -2
-72 -4z"/>
<path d="M17490 15829 c0 -9 124 -15 175 -9 22 3 35 9 29 12 -14 10 -204 6
-204 -3z"/>
<path d="M17765 15820 c4 -6 64 -10 141 -10 74 0 133 4 130 8 -3 5 -66 9 -141
10 -87 1 -134 -2 -130 -8z"/>
<path d="M18315 15820 c-104 -8 -84 -10 185 -14 124 -2 273 -7 333 -11 60 -4
107 -3 107 2 0 5 -19 9 -42 10 -24 1 -113 4 -198 7 -85 3 -189 7 -230 9 -41 1
-111 0 -155 -3z"/>
<path d="M18098 15813 c23 -2 59 -2 80 0 20 2 1 4 -43 4 -44 0 -61 -2 -37 -4z"/>
<path d="M19050 15799 c-22 -4 8 -7 79 -8 63 0 112 2 108 5 -8 9 -146 11 -187
3z"/>
<path d="M19310 15799 l-35 -6 35 -2 c114 -7 231 -7 200 0 -52 11 -160 15
-200 8z"/>
<path d="M19250 15790 c0 -5 5 -10 10 -10 6 0 10 5 10 10 0 6 -4 10 -10 10 -5
0 -10 -4 -10 -10z"/>
<path d="M19561 15791 c-10 -7 -1 -11 30 -14 75 -9 154 -6 138 4 -8 5 -38 8
-66 7 -29 -1 -56 1 -60 5 -9 9 -25 9 -42 -2z"/>
<path d="M19775 15780 c-4 -7 38 -10 124 -10 71 0 132 3 134 8 3 4 -53 8 -123
10 -80 1 -131 -1 -135 -8z"/>
<path d="M20051 15776 c8 -8 759 -11 759 -3 0 4 -172 7 -382 7 -210 0 -379 -2
-377 -4z"/>
<path d="M20856 15766 c7 -19 30 -21 38 -3 4 7 8 8 11 2 3 -6 67 -9 166 -8
164 2 230 12 103 15 -198 5 -294 3 -294 -5 0 -5 -7 -4 -15 3 -13 11 -14 10 -9
-4z"/>
<path d="M21315 15770 l-50 -6 38 -8 c30 -7 42 -5 55 8 9 9 14 15 12 14 -3 0
-27 -4 -55 -8z"/>
<path d="M21390 15761 c18 -10 315 -9 326 2 4 4 -71 7 -167 7 -100 0 -168 -4
-159 -9z"/>
<path d="M21745 15760 c-11 -5 197 -9 468 -9 269 -1 493 -3 497 -6 5 -3 341
-8 747 -10 406 -3 760 -8 788 -11 56 -5 298 6 290 14 -3 3 -290 6 -637 8 -348
1 -745 5 -883 8 -430 11 -1249 15 -1270 6z"/>
<path d="M28426 15753 c-1 -1 -93 -3 -204 -4 -148 -1 -200 -4 -195 -13 4 -7 1
-7 -7 1 -9 8 -19 9 -32 2 -13 -7 -18 -6 -18 2 0 9 -53 10 -217 5 -120 -4 -650
-7 -1178 -6 -528 0 -1021 0 -1095 0 -74 0 -216 0 -315 1 -310 2 -386 1 -391
-4 -3 -2 12 -7 33 -10 70 -9 2438 -10 3308 -1 735 8 705 7 705 21 0 9 -50 11
-196 10 -107 -1 -196 -3 -198 -4z"/>
<path d="M24590 15730 c19 -5 41 -4 50 0 10 6 -1 9 -35 9 -48 -1 -49 -1 -15
-9z"/>
<path d="M24661 15736 c11 -9 99 -15 99 -6 0 6 -23 10 -52 10 -28 0 -49 -2
-47 -4z"/>
<path d="M14891 15442 c-12 -18 -18 -37 -15 -47 8 -19 44 -35 79 -35 57 0 120
-95 198 -297 64 -166 129 -472 107 -506 -8 -14 -9 -27 -1 -46 6 -14 20 -114
31 -221 22 -211 38 -286 75 -367 21 -46 28 -53 53 -53 42 0 56 23 55 88 -1 58
-21 235 -30 262 -2 8 -6 42 -8 75 -1 33 -6 96 -10 141 l-7 81 62 6 c35 4 103
7 152 7 55 0 87 4 83 10 -3 5 -65 8 -150 6 -80 -2 -147 0 -150 4 -6 9 -12 37
-40 180 -39 205 -168 558 -229 631 -14 17 -26 34 -26 39 0 5 -19 22 -42 38
-34 23 -55 29 -104 31 -58 2 -63 1 -83 -27z"/>
<path d="M12249 15355 c-12 -19 -24 -35 -27 -35 -4 0 -63 -5 -132 -10 -69 -6
-166 -11 -217 -11 -112 -1 -136 -13 -113 -56 22 -41 102 -50 290 -35 80 7 157
12 173 12 l27 0 0 -118 c0 -65 7 -190 16 -278 9 -87 14 -180 11 -207 -2 -30 1
-53 9 -65 7 -9 14 -32 14 -50 0 -39 21 -92 43 -111 31 -25 17 -31 -78 -31 -67
0 -107 -5 -133 -16 -20 -9 -49 -16 -64 -15 -14 1 -29 -2 -33 -8 -3 -6 -17 -11
-31 -11 -14 0 -35 -5 -47 -12 -12 -6 -40 -15 -62 -19 -22 -4 -56 -13 -75 -19
-19 -7 -42 -15 -50 -18 -8 -3 -19 -6 -25 -7 -35 -3 -48 -54 -21 -90 11 -15 21
-17 67 -11 30 4 66 8 81 10 15 1 35 9 45 18 10 9 41 22 68 28 28 6 64 16 80
22 17 6 48 14 70 18 22 5 56 13 75 18 82 25 306 34 417 17 36 -5 42 -3 48 16
4 13 2 27 -7 35 -16 16 -175 53 -233 54 -32 1 -36 3 -19 10 12 4 24 16 27 24
9 24 -3 107 -19 133 -8 12 -14 25 -14 29 0 6 450 -3 595 -11 39 -3 77 0 85 5
11 7 1 10 -35 11 -27 1 -72 3 -100 4 -27 1 -138 3 -245 4 -107 2 -222 6 -255
10 l-60 6 -7 95 c-4 52 -11 127 -17 165 -5 39 -11 140 -13 225 l-3 155 65 13
c70 14 331 20 367 8 14 -5 26 -19 31 -39 5 -21 15 -33 29 -35 17 -3 25 6 39
44 l18 47 -42 38 c-23 20 -52 37 -65 38 -12 0 -72 4 -133 7 -62 3 -157 1 -215
-5 l-104 -11 -18 25 c-26 35 -54 32 -78 -10z"/>
<path d="M13888 15359 c-10 -5 -18 -17 -18 -25 0 -8 -6 -25 -14 -37 -13 -19
-70 -189 -90 -267 -15 -57 -36 -251 -36 -337 0 -50 -4 -102 -9 -115 -5 -15 -2
-63 11 -138 35 -199 107 -316 190 -308 46 4 52 40 9 62 -22 12 -33 28 -42 59
-6 23 -16 56 -22 72 -6 17 -12 127 -15 245 -4 232 10 365 58 525 12 39 22 77
23 85 1 8 13 43 26 78 21 55 22 66 11 88 -14 26 -51 32 -82 13z"/>
<path d="M14449 15080 c-25 -4 -59 -14 -75 -23 -27 -13 -77 -29 -180 -56 -23
-6 -47 -18 -54 -26 -15 -18 -4 -74 17 -82 15 -6 84 9 193 42 135 41 251 54
343 38 86 -14 69 -83 -52 -213 l-66 -72 -120 -20 c-146 -24 -167 -33 -181 -78
l-12 -35 -188 4 c-104 2 -185 0 -181 -5 4 -4 47 -9 95 -11 190 -5 412 -22 412
-30 0 -3 -29 -36 -65 -75 -35 -38 -76 -90 -90 -115 l-25 -46 25 -27 c14 -15
51 -34 85 -44 72 -22 144 -16 270 21 87 27 226 54 270 55 49 0 77 50 46 81
-27 26 -92 28 -224 7 -70 -11 -138 -26 -152 -31 -14 -6 -48 -14 -77 -18 l-52
-8 17 31 c9 16 58 72 108 124 l90 95 125 8 c176 12 189 15 189 43 0 31 -37 47
-127 53 -40 3 -73 10 -73 16 0 5 20 38 45 74 86 122 100 169 71 236 -23 54
-47 68 -148 83 -100 15 -186 16 -259 4z"/>
<path d="M18 14723 c-49 -13 -4 -19 120 -17 187 4 170 3 152 14 -15 10 -238
12 -272 3z"/>
<path d="M314 14721 c-19 -20 68 -27 136 -12 29 7 21 9 -48 12 -46 2 -86 2
-88 0z"/>
<path d="M613 14713 c-23 -9 -14 -20 12 -15 14 2 25 8 25 13 0 10 -17 11 -37
2z"/>
<path d="M671 14706 c-8 -10 49 -12 289 -12 165 1 300 4 300 9 0 4 -10 7 -22
8 -13 0 -33 2 -45 3 -12 1 -19 -2 -16 -7 3 -5 -3 -6 -15 -3 -11 4 -123 8 -250
11 -177 3 -233 1 -241 -9z"/>
<path d="M1275 14701 c6 -5 240 -12 530 -15 286 -4 527 -7 535 -8 35 -3 80 3
80 10 0 4 -116 8 -258 9 -141 2 -401 5 -577 8 -193 3 -316 2 -310 -4z"/>
<path d="M2435 14690 c-4 -6 5 -10 19 -10 14 0 26 5 26 10 0 6 -9 10 -19 10
-11 0 -23 -4 -26 -10z"/>
<path d="M2495 14689 c-6 -9 75 -11 324 -10 57 0 106 2 108 5 3 2 -71 5 -164
6 -92 1 -189 3 -215 5 -26 2 -50 -1 -53 -6z"/>
<path d="M2970 14681 c46 -8 678 -7 687 2 3 4 -158 6 -358 6 -200 -1 -348 -4
-329 -8z"/>
<path d="M3693 14683 c15 -2 39 -2 55 0 15 2 2 4 -28 4 -30 0 -43 -2 -27 -4z"/>
<path d="M3800 14680 c34 -9 447 -6 457 3 4 5 -103 7 -237 6 -135 -1 -234 -5
-220 -9z"/>
<path d="M4328 14678 c39 -7 67 -7 72 -2 6 6 -18 10 -63 11 l-72 1 63 -10z"/>
<path d="M4446 14681 c-3 -4 25 -8 62 -8 46 -1 59 2 42 7 -35 11 -98 12 -104
1z"/>
<path d="M4706 14682 c-3 -5 14 -9 37 -10 31 -2 38 0 27 8 -18 12 -57 13 -64
2z"/>
<path d="M5238 14678 c-16 -4 -8 -6 25 -7 26 -1 47 2 47 7 0 9 -41 9 -72 0z"/>
<path d="M5370 14680 c0 -12 47 -12 75 0 15 6 8 9 -27 9 -27 1 -48 -3 -48 -9z"/>
<path d="M5328 14673 c7 -3 16 -2 19 1 4 3 -2 6 -13 5 -11 0 -14 -3 -6 -6z"/>
<path d="M5483 14673 c8 -7 88 -6 95 2 3 3 -19 5 -48 5 -29 0 -50 -3 -47 -7z"/>
<path d="M5633 14673 c9 -2 23 -2 30 0 6 3 -1 5 -18 5 -16 0 -22 -2 -12 -5z"/>
<path d="M5687 14673 c-3 -5 24 -9 59 -10 37 -2 64 1 64 7 0 12 -116 14 -123
3z"/>
<path d="M5830 14668 c0 -5 23 -8 50 -8 28 0 50 4 50 10 0 5 -22 9 -50 7 -27
-1 -50 -5 -50 -9z"/>
<path d="M5945 14670 c7 -12 62 -13 68 -2 3 4 -13 8 -34 9 -24 2 -38 -1 -34
-7z"/>
<path d="M6118 14663 c34 -2 88 -2 120 0 31 2 3 3 -63 3 -66 0 -92 -1 -57 -3z"/>
<path d="M6338 14663 c23 -2 61 -2 85 0 23 2 4 4 -43 4 -47 0 -66 -2 -42 -4z"/>
<path d="M6507 14663 c18 -2 50 -2 70 0 21 2 7 4 -32 4 -38 0 -55 -2 -38 -4z"/>
<path d="M6643 14663 c10 -9 507 -11 513 -1 3 4 -113 8 -257 8 -144 0 -259 -3
-256 -7z"/>
<path d="M7190 14660 c34 -11 112 -12 129 -1 8 5 -20 9 -70 9 -57 0 -76 -2
-59 -8z"/>
<path d="M7360 14660 c0 -5 5 -10 11 -10 5 0 7 5 4 10 -3 6 -8 10 -11 10 -2 0
-4 -4 -4 -10z"/>
<path d="M7428 14663 c6 -2 18 -2 25 0 6 3 1 5 -13 5 -14 0 -19 -2 -12 -5z"/>
<path d="M10635 14661 c-6 -11 9 -23 19 -14 9 9 7 23 -3 23 -6 0 -12 -4 -16
-9z"/>
<path d="M7692 14655 c7 -8 187 -9 195 -2 3 4 -40 7 -97 7 -57 0 -101 -2 -98
-5z"/>
<path d="M7910 14649 c16 -10 160 -8 160 2 0 3 -39 6 -87 7 -59 0 -82 -2 -73
-9z"/>
<path d="M8233 14648 c-2 -5 53 -8 123 -8 70 0 125 2 122 5 -8 9 -239 11 -245
3z"/>
<path d="M8113 14643 c20 -2 54 -2 75 0 20 2 3 4 -38 4 -41 0 -58 -2 -37 -4z"/>
<path d="M8593 14643 c26 -2 67 -2 90 0 23 2 2 3 -48 3 -49 0 -68 -1 -42 -3z"/>
<path d="M8768 14643 c6 -2 18 -2 25 0 6 3 1 5 -13 5 -14 0 -19 -2 -12 -5z"/>
<path d="M9155 14640 c-3 -5 1 -10 9 -10 9 0 16 5 16 10 0 6 -4 10 -9 10 -6 0
-13 -4 -16 -10z"/>
<path d="M9205 14640 c9 -15 92 -23 112 -11 15 8 9 11 -32 11 -27 1 -58 3 -68
5 -9 2 -15 -1 -12 -5z"/>
<path d="M9353 14632 c-6 -4 12 -8 40 -9 36 -2 47 1 37 7 -18 11 -60 13 -77 2z"/>
<path d="M9540 14628 c0 -5 116 -9 258 -10 327 -1 455 -4 567 -11 50 -4 106
-3 125 2 25 5 -17 10 -140 15 -252 10 -810 12 -810 4z"/>
<path d="M8978 14623 c6 -2 18 -2 25 0 6 3 1 5 -13 5 -14 0 -19 -2 -12 -5z"/>
<path d="M9458 14623 c6 -2 18 -2 25 0 6 3 1 5 -13 5 -14 0 -19 -2 -12 -5z"/>
<path d="M10568 14622 c-16 -2 -28 -8 -28 -13 0 -6 9 -7 23 -3 12 4 37 6 55 5
17 -1 32 0 32 3 0 6 -52 11 -82 8z"/>
<path d="M10674 14613 c4 -4 111 -9 239 -11 127 -2 229 0 225 3 -3 4 -111 8
-239 11 -127 2 -229 0 -225 -3z"/>
<path d="M11153 14604 c9 -9 128 -11 133 -2 3 5 -27 8 -67 8 -40 0 -70 -3 -66
-6z"/>
<path d="M11312 14601 c-8 -5 4 -8 31 -7 25 1 43 4 40 9 -6 10 -55 9 -71 -2z"/>
<path d="M11416 14601 c11 -11 204 -20 204 -10 0 14 -34 19 -123 19 -54 0 -87
-4 -81 -9z"/>
<path d="M11640 14591 c0 -7 36 -11 100 -11 55 0 100 3 100 8 0 4 -45 9 -100
10 -65 2 -100 -1 -100 -7z"/>
<path d="M11945 14589 c-104 -7 -94 -8 118 -16 122 -4 177 -2 177 5 0 13 -178
20 -295 11z"/>
<path d="M13125 14572 c-14 -14 -1 -21 40 -19 24 1 47 -1 50 -5 8 -7 -50 -213
-60 -213 -5 0 -14 23 -20 50 -43 188 -152 175 -216 -25 -26 -79 -38 -81 -74
-10 -28 56 -52 65 -95 38 -26 -15 -31 -23 -26 -41 68 -229 92 -277 137 -277
15 0 31 5 34 11 4 5 17 14 30 19 12 5 35 30 51 57 24 40 29 59 29 117 0 117
34 89 50 -42 8 -58 52 -122 84 -122 35 0 72 44 82 95 5 28 15 66 23 85 8 19
17 52 21 73 3 20 10 37 15 37 4 0 44 -38 87 -84 81 -88 150 -136 194 -136 46
0 42 26 -11 76 -28 26 -50 52 -50 59 0 7 -11 20 -24 29 -13 8 -35 36 -48 62
-12 26 -30 49 -39 51 -15 4 -49 62 -49 83 0 6 18 10 39 10 51 0 63 17 13 18
-20 1 -88 3 -149 5 -62 2 -115 2 -118 -1z"/>
<path d="M13461 14559 c16 -10 66 -12 56 -3 -4 4 -21 8 -38 9 -22 2 -27 0 -18
-6z"/>
<path d="M13583 14553 c15 -2 37 -2 50 0 12 2 0 4 -28 4 -27 0 -38 -2 -22 -4z"/>
<path d="M13664 14553 c10 -11 36 -12 36 -2 0 5 -10 9 -22 9 -12 0 -18 -3 -14
-7z"/>
<path d="M14700 14540 c0 -5 9 -10 20 -10 11 0 20 5 20 10 0 6 -9 10 -20 10
-11 0 -20 -4 -20 -10z"/>
<path d="M14870 14539 c0 -4 31 -8 70 -7 38 0 67 4 64 9 -6 11 -134 9 -134 -2z"/>
<path d="M15062 14538 c3 -7 10 -13 16 -12 7 1 42 2 79 3 36 0 64 3 62 5 -2 2
-39 6 -83 10 -62 6 -77 4 -74 -6z"/>
<path d="M15808 14538 c-7 -4 102 -8 242 -9 140 -1 293 -1 340 -1 142 -1 204
2 197 9 -10 10 -764 11 -779 1z"/>
<path d="M15738 14533 c7 -3 16 -2 19 1 4 3 -2 6 -13 5 -11 0 -14 -3 -6 -6z"/>
<path d="M16602 14535 c4 -4 154 -9 335 -11 180 -2 463 -6 628 -9 165 -3 453
-7 640 -10 187 -2 374 -6 416 -7 55 -2 76 0 76 10 0 9 -57 12 -246 13 -135 1
-388 4 -561 6 -763 11 -1294 15 -1288 8z"/>
<path d="M18726 14505 c-3 -9 0 -15 9 -15 16 0 20 16 6 24 -5 3 -11 -1 -15 -9z"/>
<path d="M18760 14499 c0 -4 62 -8 138 -9 478 -3 604 -2 609 4 4 3 -74 7 -173
7 -98 1 -268 3 -376 4 -109 2 -198 -1 -198 -6z"/>
<path d="M19605 14490 c107 -10 412 -19 690 -20 248 -1 237 -2 231 9 -3 5
-126 10 -273 11 -148 0 -374 3 -503 5 -172 2 -211 1 -145 -5z"/>
<path d="M20541 14476 c3 -3 109 -8 235 -11 126 -2 274 -6 329 -7 55 -1 118 1
140 5 27 5 35 5 25 -2 -10 -7 190 -10 590 -11 333 0 729 -3 880 -7 151 -3 714
-7 1250 -9 776 -3 1925 -10 2245 -13 28 0 165 -1 305 -1 2165 -6 2280 -6 2280
15 0 12 -53 13 -337 9 -186 -3 -646 -4 -1023 -4 -377 1 -797 2 -935 3 -137 0
-266 0 -285 1 -19 0 -590 1 -1268 1 -677 0 -1232 2 -1232 5 0 3 -126 6 -279 6
-153 1 -575 5 -937 9 -363 4 -666 6 -674 5 -8 -1 -64 -1 -125 0 -706 8 -1189
11 -1184 6z"/>
<path d="M2 13400 c3 -9 418 -21 881 -24 164 -2 264 1 258 7 -5 5 -155 11
-338 13 -180 2 -435 6 -566 8 -132 2 -237 0 -235 -4z"/>
<path d="M1170 13381 c0 -5 36 -10 81 -10 44 0 84 -3 90 -6 5 -4 9 -1 9 5 0 6
4 9 9 6 13 -8 1020 -10 1028 -3 3 4 -77 7 -178 8 -101 0 -376 3 -611 5 -253 2
-428 0 -428 -5z"/>
<path d="M2440 13379 c-25 -3 -40 -7 -35 -9 6 -2 170 -4 365 -5 195 -2 475 -4
622 -6 240 -3 292 0 276 16 -7 7 -1175 11 -1228 4z"/>
<path d="M3725 13370 c-7 -12 78 -12 115 0 18 6 7 8 -42 9 -37 1 -70 -3 -73
-9z"/>
<path d="M3880 13370 c0 -5 170 -9 400 -9 238 0 398 4 395 10 -8 12 -795 11
-795 -1z"/>
<path d="M4750 13369 c-18 -5 -10 -7 29 -8 30 -1 52 2 49 5 -10 9 -51 11 -78
3z"/>
<path d="M4845 13370 c-3 -6 36 -9 94 -9 55 0 103 4 106 9 3 6 -36 9 -94 9
-55 0 -103 -4 -106 -9z"/>
<path d="M5060 13368 c0 -5 55 -9 123 -9 388 -4 457 -3 457 4 0 8 -71 10 -382
11 -109 1 -198 -2 -198 -6z"/>
<path d="M5660 13360 c0 -6 84 -9 223 -8 137 1 205 4 177 9 -68 11 -400 11
-400 -1z"/>
<path d="M6130 13360 c0 -4 89 -8 198 -9 108 -1 210 -4 227 -5 16 -2 39 0 50
5 13 5 -5 8 -55 9 -308 8 -420 8 -420 0z"/>
<path d="M6680 13351 c64 -10 686 -14 677 -5 -4 5 -168 9 -365 10 -196 1 -337
-2 -312 -5z"/>
<path d="M7435 13340 c22 -5 112 -8 200 -7 88 1 423 -2 745 -7 322 -5 681 -9
797 -10 117 0 213 -3 213 -6 0 -3 18 -5 40 -5 22 -1 40 3 40 7 0 4 -6 8 -12 9
-7 0 -33 2 -58 4 -160 12 -2016 27 -1965 15z"/>
<path d="M9485 13322 c-17 -17 33 -22 243 -22 130 -1 275 -3 322 -5 142 -7
410 -8 417 -1 4 3 4 8 2 11 -3 2 -217 5 -477 7 -260 2 -472 6 -472 9 0 7 -28
8 -35 1z"/>
<path d="M10502 13296 c12 -9 54 -13 125 -14 773 -9 1028 -13 1046 -17 25 -5
762 -17 1139 -19 137 -1 248 -4 248 -7 0 -4 87 -6 193 -6 236 1 1582 -12 1992
-18 455 -8 953 -8 964 0 6 3 11 3 11 -2 0 -4 145 -9 323 -10 298 -1 836 -6
2117 -18 608 -6 1186 -15 1900 -30 140 -3 536 -7 880 -10 344 -2 782 -6 974
-9 216 -3 355 -2 366 4 10 6 20 6 22 1 2 -5 433 -12 988 -16 977 -8 1158 -8
1172 1 5 3 8 2 8 -3 0 -4 453 -9 1008 -10 554 -1 1420 -5 1925 -8 813 -5 917
-3 917 10 0 13 -89 15 -752 15 -414 1 -1126 3 -1583 6 -456 2 -1343 7 -1970
10 -627 2 -1216 7 -1310 9 -93 2 -633 7 -1200 10 -566 3 -1057 6 -1090 7 -33
0 -69 0 -80 0 -59 -3 -1157 18 -1275 23 -58 3 -395 7 -750 10 -355 3 -796 7
-980 10 -184 3 -733 7 -1220 10 -487 3 -1018 8 -1180 10 -458 7 -1894 19
-2302 20 -203 0 -368 2 -368 6 0 6 -379 14 -742 14 -148 0 -268 3 -268 7 0 4
-78 7 -172 7 -254 1 -953 11 -1028 16 -55 4 -62 2 -48 -9z"/>
<path d="M13223 13073 c-12 -2 -26 -10 -32 -17 -20 -24 -31 -542 -31 -1496 -1
-399 -3 -778 -7 -842 l-6 -117 -401 4 c-221 2 -545 7 -721 10 -370 6 -852 13
-1350 20 -192 3 -444 7 -560 10 -115 3 -338 7 -495 10 -157 2 -400 7 -540 10
-826 17 -1616 24 -1633 13 -7 -4 7 -8 33 -8 25 -1 95 -3 155 -5 61 -2 283 -6
495 -9 212 -4 511 -9 665 -12 272 -6 364 -7 453 -1 23 1 42 -1 42 -4 0 -3 100
-6 223 -7 122 -1 413 -6 647 -12 234 -5 625 -12 870 -15 245 -3 533 -8 640
-10 107 -2 436 -7 730 -11 536 -7 714 -10 738 -13 9 -1 12 -27 12 -94 l0 -94
-267 -7 c-148 -3 -302 -11 -343 -16 -131 -18 -214 -32 -245 -41 -16 -4 -52
-11 -78 -14 -27 -3 -58 -10 -69 -16 -11 -6 -26 -8 -33 -5 -12 4 -98 -6 -375
-44 -145 -20 -245 -42 -370 -84 -41 -13 -115 -32 -165 -41 -104 -19 -146 -31
-308 -91 -66 -24 -125 -44 -131 -44 -7 0 -80 -33 -162 -74 -82 -40 -165 -79
-185 -85 -20 -7 -45 -21 -54 -31 -10 -11 -22 -20 -28 -20 -5 0 -83 -36 -174
-80 -90 -44 -166 -80 -169 -80 -2 0 -23 -12 -47 -27 -23 -15 -62 -38 -87 -50
-62 -32 -184 -104 -190 -113 -3 -4 -21 -15 -40 -25 -19 -10 -59 -34 -89 -53
-41 -28 -66 -36 -107 -39 -42 -2 -54 0 -54 11 0 13 43 135 71 201 4 11 22 62
39 114 l31 95 -26 25 c-37 37 -53 22 -96 -95 -20 -54 -42 -110 -47 -124 -6
-14 -20 -50 -32 -80 -11 -30 -30 -73 -43 -95 l-23 -40 -304 2 c-364 2 -1080
11 -1380 18 -118 3 -406 7 -640 10 -234 3 -571 8 -750 10 -696 11 -1185 14
-1940 14 -432 -1 -794 -1 -805 -1 -50 1 -1297 11 -2020 16 -440 4 -938 9
-1107 11 -194 3 -308 1 -308 -5 0 -11 34 -12 670 -17 228 -1 588 -5 800 -9
399 -5 1401 -14 1550 -13 120 1 162 -1 172 -7 5 -3 14 -2 21 3 7 5 56 7 109 3
73 -4 534 -4 603 0 75 5 2420 -16 2730 -25 197 -5 797 -16 1145 -20 571 -7
1144 -17 1165 -20 11 -2 78 -4 148 -4 l129 -1 -7 -32 c-4 -18 -17 -52 -30 -75
-13 -23 -26 -55 -30 -70 -4 -16 -27 -44 -53 -66 -26 -20 -84 -70 -130 -110
-46 -39 -106 -87 -133 -105 -28 -18 -53 -40 -55 -47 -3 -8 -29 -32 -57 -54
-70 -53 -320 -300 -392 -386 -32 -38 -102 -117 -155 -175 -53 -58 -108 -121
-124 -140 -16 -19 -36 -39 -45 -44 -17 -10 -451 -10 -916 -1 -796 17 -2377 33
-2467 25 -7 -1 -156 1 -330 3 -232 3 -316 1 -311 -7 5 -8 3 -8 -8 0 -10 8
-229 12 -769 13 -415 1 -870 4 -1010 6 -140 2 -697 7 -1238 11 -735 5 -982 4
-982 -5 0 -8 48 -11 168 -11 92 0 331 -2 532 -4 201 -3 838 -8 1415 -12 578
-3 1085 -7 1127 -8 43 -1 79 3 81 8 2 5 12 4 23 -2 14 -8 236 -11 720 -12 384
0 956 -2 1269 -5 528 -4 785 -8 1440 -20 503 -10 973 -16 1097 -16 l127 0 -17
-27 c-9 -15 -51 -70 -93 -122 -41 -52 -97 -129 -124 -170 -26 -41 -56 -87 -66
-102 -10 -15 -44 -63 -74 -108 -30 -44 -55 -83 -55 -86 0 -3 -5 -10 -10 -17
-38 -44 -219 -372 -352 -637 l-33 -65 -275 1 c-151 0 -597 3 -990 7 -393 4
-1048 9 -1455 12 -4071 29 -4448 30 -4453 16 -4 -11 229 -13 1233 -15 292 -1
536 -5 544 -10 8 -5 16 -5 20 1 3 6 32 7 71 3 75 -7 416 -4 429 5 5 3 12 1 15
-4 4 -6 281 -10 719 -11 391 0 863 -3 1047 -5 184 -3 666 -7 1070 -10 404 -3
942 -8 1195 -12 253 -3 538 -6 633 -6 94 0 172 -3 172 -7 0 -16 -40 -120 -73
-190 -42 -90 -83 -194 -93 -234 -4 -16 -22 -65 -40 -109 -19 -45 -34 -89 -34
-98 0 -9 -9 -36 -20 -60 -11 -24 -20 -57 -20 -73 0 -16 -6 -37 -13 -45 -8 -9
-24 -61 -37 -116 -13 -55 -30 -113 -37 -128 -8 -15 -11 -32 -8 -37 3 -5 -1
-22 -9 -38 -8 -16 -16 -40 -18 -53 -2 -13 -10 -35 -17 -48 -9 -16 -11 -41 -8
-74 l6 -49 -967 6 c-532 3 -1451 9 -2042 12 -1652 10 -2501 15 -3137 21 -435
5 -583 3 -583 -6 0 -6 8 -11 18 -12 9 0 34 -2 55 -4 22 -2 37 0 37 7 0 5 7 7
16 4 9 -4 163 -9 343 -12 179 -3 359 -6 399 -7 39 -1 72 2 72 7 0 4 8 5 18 1
9 -4 313 -7 675 -8 361 0 657 -3 657 -7 0 -4 18 -6 40 -6 22 0 40 3 40 6 0 3
31 5 70 5 38 0 70 -2 70 -5 0 -6 1563 -13 1930 -9 8 0 213 -2 455 -5 242 -3
748 -8 1125 -11 377 -3 698 -8 713 -11 21 -4 27 -10 22 -22 -14 -37 -46 -195
-80 -402 -15 -85 -32 -182 -40 -215 -17 -75 -36 -261 -36 -340 1 -33 -2 -88
-5 -122 -8 -74 2 -133 20 -133 8 0 16 10 20 23 5 21 9 22 153 25 81 1 203 7
270 13 92 8 127 8 143 -1 32 -17 375 -27 384 -11 6 9 11 9 22 0 15 -12 56 -23
159 -41 33 -5 150 -10 260 -11 197 -1 792 10 870 16 22 2 77 -3 123 -9 46 -7
107 -14 135 -15 29 -1 57 -6 62 -10 6 -4 78 -14 160 -21 196 -19 401 -10 463
20 37 18 62 20 214 21 95 0 223 -3 283 -8 152 -10 391 -5 505 12 52 8 133 20
180 26 224 29 417 64 450 81 11 6 20 15 20 21 0 6 14 7 35 3 22 -4 35 -2 35 4
0 7 13 5 36 -4 50 -21 80 -15 76 13 -2 13 6 57 17 98 12 41 21 86 21 99 0 13
8 34 19 47 10 13 28 53 41 89 49 139 79 187 164 266 82 75 149 120 266 179 36
18 85 44 110 57 25 13 70 35 100 48 30 14 58 26 62 28 4 2 -4 -37 -18 -87 -23
-86 -24 -92 -8 -116 18 -27 55 -33 73 -12 6 8 15 38 21 66 5 29 16 65 24 79 8
15 21 43 30 63 17 40 44 54 166 88 92 26 160 39 242 46 35 3 73 8 86 11 l23 5
-5 -323 c-3 -178 -8 -483 -12 -678 l-6 -355 -742 3 c-831 2 -766 -4 -766 77 0
58 -20 82 -56 70 -23 -8 -30 -18 -35 -50 -5 -29 -3 -42 7 -48 8 -4 14 -19 14
-33 0 -15 -4 -23 -11 -19 -6 4 -862 9 -1902 10 -2242 5 -2967 11 -2984 29 -7
6 -17 33 -22 60 -10 54 -25 70 -54 54 -17 -8 -19 -18 -15 -69 l4 -59 -315 5
c-398 6 -1543 17 -1759 16 -90 0 -168 -4 -175 -8 -13 -8 -526 -8 -1522 1
-1826 16 -2755 18 -2755 7 0 -8 19 -12 58 -11 31 1 374 -1 762 -4 388 -3 829
-6 980 -6 151 1 284 0 295 0 32 -1 1138 -11 1620 -16 586 -5 533 -1 550 -41
12 -29 19 -33 50 -33 20 0 48 -6 63 -14 21 -10 128 -15 492 -20 394 -6 1515
-17 1646 -16 l41 0 28 -88 c34 -107 51 -142 70 -142 16 0 31 43 26 75 -2 11
-14 41 -28 66 -14 26 -23 55 -21 65 3 18 29 19 773 17 424 -2 1004 -5 1290 -9
514 -6 2108 -15 2545 -15 124 1 239 -2 257 -5 29 -5 32 -10 38 -56 4 -28 13
-52 21 -55 22 -8 45 17 43 46 -1 14 -1 36 -1 49 l2 23 258 -3 c141 -2 307 -2
367 -1 61 1 220 2 355 2 135 0 303 1 375 2 l130 2 -2 -589 c-1 -324 -5 -609
-8 -634 l-6 -45 -112 5 c-62 3 -1493 6 -3181 8 -2046 1 -3073 6 -3081 12 -19
15 -52 118 -60 180 -3 30 -8 67 -11 82 -8 39 14 36 57 -8 45 -47 110 -79 233
-116 56 -16 127 -43 158 -60 31 -17 61 -28 66 -24 5 3 7 18 5 33 -6 37 -37 58
-203 133 -130 60 -210 116 -210 147 0 8 28 48 63 91 84 102 167 247 167 291 0
27 -9 42 -40 72 -33 32 -46 38 -82 37 -23 0 -48 -7 -56 -14 -7 -8 -22 -14 -32
-14 -11 0 -56 -19 -100 -41 -85 -44 -110 -72 -110 -127 0 -29 -22 -48 -40 -37
-4 3 -13 -2 -20 -10 -10 -12 -9 -28 7 -83 11 -37 33 -134 48 -217 15 -82 34
-175 42 -205 8 -30 17 -70 20 -89 l6 -34 -1324 6 c-728 4 -1585 9 -1904 12
-2065 19 -3368 21 -3373 6 -3 -8 49 -10 180 -9 101 1 189 -2 196 -6 7 -4 12
-2 12 4 0 8 13 10 43 4 23 -4 49 -6 57 -6 8 1 58 1 110 0 52 0 120 -1 150 0
113 1 298 0 384 -3 49 -1 116 1 148 4 32 4 61 5 64 2 3 -3 222 -7 487 -8 373
-1 1635 -11 1717 -13 8 -1 188 -1 400 -1 212 1 459 -2 550 -5 91 -3 181 -4
200 -3 78 4 376 1 430 -5 32 -4 61 -3 64 2 3 5 23 6 46 2 22 -4 40 -4 40 1 0
4 19 6 43 3 23 -3 321 -7 663 -8 342 -2 627 -6 633 -10 7 -4 33 -5 59 -2 61 8
131 8 1827 8 787 0 1439 0 1450 0 11 1 711 0 1557 -1 1276 -1 1538 -4 1547
-15 7 -8 12 -39 13 -69 1 -49 5 -58 30 -77 52 -39 92 0 102 96 3 27 5 52 5 55
1 6 304 5 1966 -6 578 -3 1367 -8 1755 -10 1274 -7 2280 -15 2580 -20 162 -3
583 -7 935 -10 352 -3 816 -7 1030 -10 537 -6 3612 -27 3870 -27 6 0 78 1 160
2 83 0 519 -2 970 -5 2460 -16 2345 -16 2345 -1 0 8 -6 16 -14 19 -8 3 -628 8
-1378 12 -750 3 -1734 8 -2188 10 -454 3 -1257 7 -1785 10 -1410 7 -3483 24
-3625 30 -47 2 -129 4 -184 4 l-99 1 7 93 c5 72 2 118 -14 212 -12 66 -23 134
-25 150 -24 176 -25 196 -16 233 16 57 64 123 138 188 63 56 66 57 92 43 21
-12 28 -25 35 -70 15 -96 -35 -210 -147 -337 -79 -89 -58 -124 92 -157 111
-24 194 -69 271 -146 36 -36 79 -85 95 -110 38 -54 76 -71 105 -44 24 22 28
80 5 89 -8 3 -15 10 -15 15 0 13 -30 47 -115 132 -77 76 -187 140 -282 165
-32 8 -59 17 -61 19 -2 2 18 29 44 60 27 31 49 59 49 63 0 12 28 76 39 91 6 7
12 57 14 111 3 84 1 104 -18 139 -62 122 -180 99 -324 -63 -84 -94 -130 -176
-123 -219 3 -17 12 -76 21 -129 16 -98 23 -193 31 -416 4 -122 4 -122 -18
-117 -44 9 -2265 24 -4359 29 -559 1 -587 2 -565 18 12 10 27 18 32 18 6 0 27
9 48 20 20 11 45 20 54 20 30 0 83 38 83 59 0 11 -5 23 -11 27 -15 9 -126 -15
-170 -37 -24 -12 -55 -17 -90 -16 l-54 2 0 51 c1 62 72 218 131 285 73 83 69
77 49 99 -23 26 -34 25 -97 -5 -29 -14 -58 -23 -65 -21 -15 6 -18 66 -3 66 6
0 10 5 10 11 0 25 71 99 94 99 45 0 60 51 20 67 -22 8 -92 -17 -126 -46 -69
-58 -119 -223 -80 -267 23 -27 43 -34 65 -22 20 10 23 -4 4 -21 -30 -24 -99
-190 -104 -250 -7 -78 1 -106 37 -128 17 -9 30 -20 30 -23 0 -3 -37 -4 -83 -3
-45 0 -306 2 -579 2 l-496 1 3 58 c3 51 26 946 29 1127 l1 70 135 1 c74 0 259
0 410 0 151 0 352 -1 445 -1 l170 0 3 -25 c8 -81 14 -109 27 -126 13 -19 14
-19 29 1 8 11 16 40 16 65 1 25 5 54 9 65 8 20 16 20 967 17 1014 -2 2481 -12
2699 -17 172 -4 665 -14 1045 -21 168 -3 307 -7 309 -10 2 -2 4 -18 5 -36 1
-18 5 -37 9 -43 4 -5 14 -19 22 -30 11 -16 16 -17 26 -8 15 15 39 80 39 106 0
18 19 19 483 13 265 -3 617 -8 782 -11 633 -11 1283 -10 1295 2 15 14 4 67
-17 88 -18 19 -90 17 652 15 1164 -3 1205 -3 1210 -20 2 -8 9 -42 15 -75 7
-33 16 -78 21 -100 4 -22 8 -62 9 -89 0 -28 9 -84 21 -125 28 -104 75 -146
119 -106 16 15 16 22 0 113 -10 53 -17 98 -15 100 1 1 24 -13 51 -32 76 -54
194 -113 265 -132 84 -23 313 -26 352 -5 32 17 34 46 7 81 -19 25 -21 25 -167
26 -123 0 -157 4 -203 21 -111 41 -154 68 -230 142 -77 75 -100 116 -100 178
0 20 3 21 27 12 14 -5 34 -7 42 -4 9 4 81 6 161 5 80 -1 241 -2 358 -2 l214
-1 -5 -31 c-4 -29 -26 -113 -48 -182 -13 -42 -11 -99 5 -164 27 -107 42 -127
132 -171 42 -20 50 -20 104 -9 42 9 72 24 111 55 30 24 57 47 61 52 43 48 69
84 78 107 11 31 14 99 3 109 -3 4 -45 -33 -92 -82 -113 -117 -174 -148 -234
-120 -35 16 -49 52 -54 144 -3 65 -1 87 14 115 10 19 25 34 32 32 8 -2 38 5
68 14 39 12 64 28 89 57 18 22 34 47 34 54 0 10 40 13 196 13 l197 0 -7 -177
c-7 -197 2 -253 51 -325 57 -83 217 -75 234 12 4 19 6 38 3 41 -2 4 -25 -5
-52 -19 -63 -33 -97 -26 -119 26 -13 31 -15 68 -10 235 4 109 8 201 11 205 8
13 574 -2 587 -15 10 -10 7 -25 -16 -74 l-30 -61 21 -36 c51 -88 208 -77 364
26 73 48 133 94 144 111 30 48 34 48 231 50 103 1 191 3 195 6 19 12 29 -31
39 -170 13 -167 8 -254 -14 -271 -12 -9 -10 -14 14 -32 50 -37 72 -36 106 5
l30 37 -2 208 -2 209 697 -3 c657 -3 697 -2 700 15 3 16 -22 17 -410 18 -538
0 -976 7 -988 14 -6 3 -10 20 -10 37 0 32 -11 74 -61 235 -16 51 -29 102 -29
112 0 11 -4 22 -9 25 -5 3 -12 18 -16 33 -16 67 -113 247 -165 308 -59 70 -88
93 -143 113 -69 26 -101 27 -175 6 -62 -18 -90 -37 -103 -71 -11 -30 -3 -48
26 -61 25 -12 43 -10 88 7 16 6 53 11 84 11 55 0 56 -1 119 -64 48 -49 73 -86
109 -162 66 -138 62 -130 85 -224 11 -47 25 -101 30 -120 5 -19 12 -73 16
-119 6 -75 5 -84 -9 -78 -9 3 -100 7 -202 7 l-185 2 0 24 c0 33 -38 48 -63 26
-10 -9 -26 -17 -35 -17 -53 -4 -57 -5 -43 -14 19 -12 -32 -23 -98 -20 -82 4
-64 23 33 35 27 3 83 18 125 33 61 22 77 32 79 50 6 42 -15 53 -87 46 -38 -4
-77 -2 -91 4 -14 5 -18 10 -10 10 22 1 53 86 56 153 1 45 -3 64 -18 83 -46 58
-152 52 -330 -20 -61 -25 -120 -45 -132 -45 -11 0 -36 -9 -53 -20 -26 -15 -33
-27 -33 -50 0 -41 30 -57 118 -63 60 -4 72 -2 68 10 -3 8 2 16 12 20 9 3 41
17 71 30 57 25 131 53 144 53 28 0 -27 -121 -64 -141 -10 -5 -19 -19 -19 -29
0 -16 -7 -20 -32 -20 -47 0 -93 -32 -129 -90 l-31 -50 -259 1 c-240 2 -260 3
-276 21 -15 17 -16 30 -5 156 7 75 17 153 22 172 5 19 16 61 24 93 8 32 24 76
35 98 12 21 31 58 43 82 16 30 23 59 23 102 l0 60 -33 3 c-26 3 -39 -3 -60
-26 -16 -16 -33 -45 -39 -63 -6 -19 -23 -65 -38 -104 -55 -144 -95 -354 -95
-496 0 -64 -4 -89 -12 -90 -14 -1 -116 -1 -287 0 -57 1 -101 4 -98 8 8 8 -15
47 -51 86 -18 19 -36 27 -60 27 -46 0 -70 -14 -122 -71 l-46 -50 -309 3 c-171
2 -356 3 -412 3 l-103 0 0 25 c0 32 60 159 104 219 77 105 143 241 154 316 3
22 5 95 5 162 -1 98 -5 134 -23 185 -41 120 -88 194 -164 262 -89 79 -108 89
-172 89 -92 0 -173 -64 -230 -179 -27 -56 -29 -66 -29 -184 1 -155 7 -184 40
-178 13 3 26 0 28 -6 2 -6 14 -74 27 -151 12 -77 38 -212 57 -300 19 -88 39
-179 43 -202 10 -44 4 -77 -11 -68 -17 11 -209 14 -1179 20 -547 4 -1155 9
-1350 12 -195 2 -366 4 -380 2 -76 -6 -1411 9 -1453 17 -23 5 -33 17 -53 61
-13 31 -24 66 -24 79 0 29 -35 66 -58 62 -15 -3 -55 -52 -65 -81 -10 -27 -16
2 -7 34 18 62 13 118 -14 142 -27 25 -29 40 -45 317 -14 233 -49 515 -77 630
-8 30 -14 67 -14 83 l0 29 588 -6 c323 -3 891 -8 1262 -11 371 -3 925 -8 1230
-11 305 -3 769 -7 1030 -9 261 -2 684 -8 940 -12 506 -8 516 -8 575 -4 22 1
299 0 615 -3 475 -4 2685 -17 3115 -18 198 0 205 0 205 17 0 13 -31 15 -212
16 -117 0 -400 2 -628 4 -228 3 -919 7 -1535 10 -1140 5 -1879 11 -2720 20
-258 3 -891 7 -1405 11 -514 3 -1099 7 -1300 9 -201 2 -678 7 -1060 10 -382 4
-698 10 -702 13 -3 4 -14 45 -23 92 -9 47 -24 110 -32 140 -9 30 -34 123 -55
205 -22 83 -43 164 -48 180 -12 45 -59 181 -91 260 -15 39 -32 90 -39 114 -6
24 -22 67 -35 95 -40 87 -95 229 -95 244 0 10 8 12 28 8 15 -3 529 -8 1142
-11 613 -3 1333 -7 1600 -10 267 -3 843 -8 1280 -11 437 -3 935 -7 1105 -9
171 -2 666 -6 1100 -10 435 -3 934 -7 1110 -10 176 -3 836 -8 1468 -11 1050
-6 1147 -5 1147 10 0 14 -38 16 -377 17 -1128 5 -3199 19 -3473 24 -113 2
-542 7 -955 10 -412 3 -925 8 -1140 10 -214 2 -876 7 -1470 11 -594 3 -1217 7
-1385 9 -168 2 -507 4 -753 4 l-448 1 -18 43 c-22 50 -26 59 -171 342 -62 121
-120 231 -130 245 -9 14 -19 32 -23 41 -3 9 -35 65 -71 123 -36 59 -66 108
-66 110 0 1 20 17 45 35 59 42 87 98 89 176 1 77 -17 83 -26 8 -12 -89 -12
-89 -48 -127 -25 -26 -44 -36 -66 -36 -27 0 -36 7 -67 58 -19 31 -49 74 -66
96 -19 23 -31 50 -31 68 0 16 -6 31 -15 35 -14 5 -14 8 0 29 22 34 19 39 -27
50 -27 5 -43 15 -43 24 0 11 13 15 60 14 33 0 803 -4 1710 -8 908 -4 1774 -9
1925 -11 151 -2 664 -6 1140 -9 476 -4 957 -8 1070 -11 113 -3 486 -8 830 -11
344 -3 722 -7 840 -9 118 -2 878 -6 1688 -10 1357 -7 1472 -6 1472 9 0 15 -39
16 -432 16 -238 0 -737 2 -1108 5 -371 2 -1098 7 -1615 11 -517 3 -1030 7
-1140 9 -704 12 -3147 31 -5205 41 -679 3 -1238 7 -1241 10 -7 4 -26 63 -55
172 -13 49 -29 77 -79 135 -34 39 -74 78 -88 86 -15 8 -27 18 -27 23 0 19
-116 130 -157 150 -22 11 -54 38 -70 59 -15 21 -127 128 -247 236 -154 139
-215 199 -202 201 16 3 77 -4 226 -27 30 -5 89 -19 130 -32 102 -30 170 -35
209 -15 17 9 31 24 31 35 0 25 -31 51 -61 51 -30 0 -140 24 -199 43 -69 23
-247 55 -310 55 -14 1 -61 8 -104 16 -54 11 -83 13 -90 6 -15 -15 -42 -12 -57
6 -8 9 -30 27 -49 39 -19 13 -50 36 -68 52 l-34 28 904 -2 c1513 -4 3996 -18
4943 -28 187 -2 630 -7 985 -11 355 -4 742 -8 860 -9 570 -8 1643 -15 2910
-21 768 -3 1405 -6 1415 -7 11 -1 21 5 23 16 3 16 -17 17 -305 17 -169 1 -596
3 -948 5 -352 2 -1225 7 -1940 10 -715 3 -1361 8 -1435 10 -74 2 -502 7 -950
10 -448 3 -910 8 -1027 10 -135 3 -214 1 -218 -5 -4 -6 -13 -7 -23 -1 -20 10
-1071 18 -3507 27 l-1730 6 -26 24 c-29 28 -36 30 -41 9 -2 -12 -24 -2 -93 41
-49 31 -108 65 -131 75 -23 10 -48 26 -55 35 -8 10 -30 24 -49 33 -19 9 -53
28 -75 42 -22 14 -51 30 -65 34 -38 12 -229 114 -284 152 -27 18 -81 49 -121
68 -99 47 -101 50 -62 115 26 45 39 56 70 63 20 5 37 13 37 19 0 44 -64 71
-105 44 -23 -15 -25 -15 -25 0 0 9 6 30 14 47 8 18 25 62 40 99 47 122 114
252 147 286 18 18 63 51 100 73 37 23 73 46 78 53 9 10 73 12 288 9 153 -2
284 -6 291 -9 29 -9 -14 -424 -44 -424 -7 0 -25 -10 -41 -23 -15 -13 -48 -29
-72 -36 -57 -16 -91 -39 -91 -60 0 -29 35 -41 127 -40 48 1 120 -5 158 -11 39
-7 90 -13 115 -14 44 -1 45 -1 42 29 -5 42 -19 55 -58 55 -20 0 -42 8 -53 19
-21 21 -21 18 -1 191 6 47 12 130 14 185 3 55 7 107 10 115 5 13 108 15 849
13 906 -1 2477 -11 3197 -18 245 -3 704 -7 1020 -10 959 -8 1695 -15 2085 -21
204 -3 840 -7 1415 -9 2238 -8 3450 -15 3464 -21 10 -4 16 -1 16 9 0 8 -8 18
-17 21 -9 4 -152 6 -317 6 -1018 -2 -4388 15 -4911 25 -143 2 -638 7 -1100 10
-1697 11 -2075 15 -2305 20 -129 3 -944 8 -1810 11 -866 3 -1577 7 -1580 9 -7
4 -4 365 4 560 3 83 3 192 -2 243 -5 58 -4 96 2 102 6 6 31 10 56 10 25 0 71
6 101 14 96 25 217 36 459 41 129 2 254 7 276 10 l42 7 11 -52 c9 -40 8 -56 0
-67 -16 -19 -3 -207 17 -249 9 -18 14 -45 12 -61 -3 -28 25 -63 51 -63 19 0
33 52 26 95 -4 22 -10 133 -14 247 -4 149 -10 211 -19 220 -18 18 -221 27
-347 16 -55 -4 -172 -10 -260 -12 -88 -2 -179 -9 -203 -15 -24 -6 -67 -14 -95
-16 -158 -15 -199 -22 -208 -35 -5 -9 -7 -62 -4 -125 12 -244 4 -860 -11 -875
-8 -8 -23 -8 -50 -1 -22 5 -138 10 -259 10 -240 1 -955 11 -1075 16 -82 2
-1756 17 -1909 16 l-94 -1 7 1138 c3 625 9 1165 12 1199 7 68 -6 117 -37 133
-10 6 -19 9 -21 9 -2 -1 -13 -4 -25 -6z m676 -2499 c514 -2 1092 -9 1571 -19
91 -2 238 -4 328 -5 89 -1 162 -3 162 -6 0 -2 -28 -22 -63 -44 -59 -37 -67
-46 -115 -139 -28 -54 -59 -121 -68 -147 -9 -27 -30 -77 -46 -111 -16 -35 -27
-67 -23 -72 9 -15 -22 -81 -37 -81 -26 0 -59 31 -53 50 5 17 -22 76 -53 113
-19 21 -61 22 -68 2 -4 -9 5 -32 19 -53 14 -20 29 -54 32 -75 4 -20 11 -40 16
-43 11 -6 12 -54 2 -54 -14 0 -114 40 -171 69 -31 16 -68 32 -82 36 -14 4 -54
20 -90 35 -210 93 -674 230 -910 271 -30 5 -66 12 -80 15 -14 3 -65 7 -115 9
-49 1 -117 8 -150 14 -33 5 -112 13 -175 16 -63 3 -128 8 -145 12 -16 3 -88 9
-160 12 l-130 6 -3 80 c-3 91 3 129 20 119 6 -4 270 -8 587 -10z m-752 -584
c2 -190 0 -430 -5 -534 l-7 -189 -315 2 c-484 2 -1642 14 -2679 27 -436 5
-525 4 -532 -7 -6 -10 -9 -10 -9 -2 0 7 6 17 13 23 26 22 84 60 127 84 25 13
54 33 65 43 11 11 34 26 50 35 17 8 85 45 151 82 67 36 127 66 134 66 6 0 51
20 99 45 48 25 91 45 97 45 5 0 20 9 34 20 14 11 35 20 46 20 12 0 42 11 65
25 24 14 50 25 57 25 7 0 31 9 53 19 22 11 54 23 72 27 18 3 70 25 117 47 47
22 95 41 107 43 18 2 74 24 198 79 17 8 71 23 120 34 50 11 137 31 195 45 58
14 143 32 190 41 47 9 108 23 135 30 92 25 180 39 390 65 44 5 116 16 160 25
44 9 96 18 115 20 19 1 55 8 80 15 87 23 167 31 365 38 110 4 225 7 255 7 l55
0 2 -345z m493 310 c44 -14 82 -17 178 -14 129 3 204 -4 312 -31 36 -8 97 -20
135 -25 39 -5 97 -17 130 -25 33 -9 76 -21 95 -26 237 -60 406 -114 442 -139
15 -11 32 -20 37 -20 26 0 195 -62 268 -99 46 -22 85 -41 89 -41 12 0 203 -85
304 -135 109 -54 211 -113 239 -139 15 -14 38 -27 131 -76 45 -24 54 -29 99
-55 24 -14 51 -25 60 -25 9 0 32 -10 51 -23 19 -13 56 -31 82 -41 26 -9 74
-35 108 -57 33 -21 64 -39 69 -39 4 0 16 -9 26 -20 10 -11 24 -20 32 -20 7 0
13 -6 13 -13 0 -11 -20 -13 -87 -11 -173 5 -696 14 -1183 20 -272 3 -556 7
-630 9 -74 2 -402 3 -729 4 l-594 1 7 363 c10 451 8 619 -4 652 -14 36 -13 43
8 48 38 10 259 -7 312 -23z m-4200 -1029 c0 -5 -12 -16 -27 -23 -16 -8 -40
-22 -55 -32 -27 -18 -28 -18 -28 1 0 37 28 63 71 63 21 0 39 -4 39 -9z m1285
-5 c182 -3 661 -8 1065 -11 679 -5 1208 -13 1305 -20 l40 -2 0 -219 c-2 -570
-7 -1061 -12 -1081 -5 -20 -10 -22 -66 -18 -55 3 -380 7 -1957 20 -228 2 -815
7 -1305 11 -489 5 -1062 9 -1272 9 -260 0 -384 3 -387 11 -3 8 48 79 97 134 8
8 76 85 152 170 75 85 154 171 175 190 131 122 209 190 219 190 6 0 11 6 12
13 1 16 177 172 212 188 15 7 27 16 27 20 0 17 139 119 203 149 76 35 124 39
180 16 20 -9 37 -13 37 -9 0 5 5 1 10 -8 6 -10 34 -33 63 -52 39 -26 60 -34
80 -30 15 3 27 11 27 18 0 15 -38 66 -59 79 -9 5 -26 21 -40 34 -14 14 -54 38
-90 55 -55 26 -62 32 -47 41 10 6 53 34 96 62 l77 51 414 -3 c228 -2 563 -6
744 -8z m4180 -41 c527 -6 1184 -16 1433 -20 l254 -5 56 -33 c32 -19 71 -47
87 -63 17 -16 46 -38 65 -49 75 -43 89 -52 121 -79 88 -73 126 -116 138 -158
7 -24 25 -70 40 -103 15 -33 36 -87 46 -120 10 -33 21 -64 25 -70 4 -5 10 -34
14 -64 4 -30 11 -62 16 -71 21 -39 52 -187 55 -259 4 -115 16 -141 66 -141 25
0 29 5 35 37 10 52 -13 215 -41 293 -13 36 -31 106 -41 155 -9 50 -25 108 -35
130 -9 22 -20 53 -24 70 -3 16 -15 49 -26 73 -11 24 -18 46 -15 49 3 3 30 -18
60 -48 29 -30 73 -70 98 -89 84 -67 151 -125 167 -145 19 -24 111 -115 244
-243 53 -51 110 -112 127 -136 18 -24 42 -49 55 -56 31 -17 51 -79 35 -110 -7
-14 -10 -38 -6 -63 l7 -40 -438 7 c-241 3 -649 8 -908 11 -258 3 -578 7 -710
10 -132 3 -665 7 -1185 11 -520 3 -1045 7 -1166 8 -196 3 -260 -2 -244 -18 7
-6 148 -8 547 -7 182 0 452 -1 600 -4 147 -2 554 -7 903 -10 645 -5 1578 -16
1705 -20 39 -1 256 -3 484 -4 250 -1 421 -6 432 -12 24 -12 49 -60 49 -92 0
-26 90 -168 146 -230 19 -20 34 -43 34 -50 0 -7 15 -31 33 -53 64 -76 447
-790 472 -882 l7 -23 -214 6 c-117 3 -476 7 -798 10 -727 6 -1684 15 -2015 20
-137 2 -425 4 -638 4 -223 1 -387 5 -385 10 4 12 96 86 166 134 96 66 128 79
191 75 67 -4 76 12 36 61 -42 49 -105 41 -240 -28 -68 -35 -134 -86 -238 -183
l-72 -67 -79 -1 c-77 0 -81 1 -130 39 -80 61 -153 93 -221 98 -54 4 -68 1
-141 -35 -92 -45 -144 -98 -144 -147 0 -33 15 -55 37 -55 7 0 30 18 50 41 l37
41 173 -4 172 -3 31 -35 c40 -45 80 -127 80 -164 0 -29 -27 -118 -55 -181 -7
-16 -20 -48 -30 -70 -9 -22 -27 -56 -39 -75 -12 -19 -43 -66 -68 -105 -123
-189 -128 -269 -16 -251 57 9 113 41 141 78 65 87 127 246 127 325 0 64 30
213 53 262 27 58 64 114 115 171 l39 45 354 -2 c704 -4 2228 -20 2654 -28 72
-1 339 -3 595 -5 255 -1 472 -5 480 -10 9 -5 23 -28 30 -52 7 -24 31 -81 53
-128 43 -93 80 -188 103 -265 9 -27 31 -83 50 -123 19 -40 34 -85 34 -100 0
-16 3 -32 7 -35 3 -4 8 -21 10 -39 4 -38 42 -146 54 -154 5 -3 9 -22 9 -42 1
-20 8 -55 16 -77 8 -22 16 -49 18 -60 1 -11 7 -29 13 -40 6 -11 11 -50 11 -88
0 -37 3 -81 7 -97 5 -21 3 -30 -7 -31 -39 -2 -909 2 -1118 6 -330 6 -2314 20
-2932 20 -274 0 -498 4 -498 8 0 5 7 34 16 65 28 95 6 296 -38 349 -19 24 -56
15 -82 -20 -44 -57 -34 -77 25 -53 29 12 42 -43 36 -147 -6 -106 -27 -174 -62
-200 -14 -10 -25 -13 -25 -7 0 8 -23 11 -67 9 l-68 -2 0 41 c-1 48 -2 50 -42
58 -26 5 -31 2 -36 -18 -4 -12 -7 -35 -7 -50 l0 -28 -117 2 c-65 0 -126 5
-136 10 -10 5 -25 24 -32 41 -7 18 -35 57 -61 87 -25 30 -53 65 -61 77 -11 16
-25 23 -48 23 -29 0 -34 -4 -37 -27 -2 -16 4 -36 12 -45 8 -9 20 -23 25 -30 6
-7 29 -35 53 -61 63 -70 59 -76 -45 -73 -60 2 -99 8 -121 20 -34 18 -81 28
-205 46 -38 5 -87 15 -110 21 -23 6 -52 11 -64 11 l-23 1 -1 216 c-1 119 -1
272 0 341 9 521 12 658 16 675 4 19 11 20 246 17 134 -1 250 0 258 3 46 18
-34 25 -259 24 l-245 -1 2 523 c3 758 16 1703 29 2017 l6 143 657 -6 c361 -4
778 -8 926 -10z m-5610 -1301 c407 -4 788 -6 847 -6 59 1 110 -3 113 -8 3 -4
-17 -24 -43 -44 -59 -43 -190 -179 -228 -235 -14 -23 -30 -41 -34 -41 -17 0
-212 -274 -295 -415 -29 -50 -79 -150 -107 -215 -9 -19 -32 -72 -52 -117 -19
-45 -41 -103 -47 -130 -7 -26 -19 -64 -28 -83 -9 -19 -17 -36 -17 -38 -3 -5
-1512 1 -2111 8 -13 0 -23 5 -23 11 0 7 20 51 45 100 25 49 45 93 45 99 0 7
19 42 43 78 24 37 63 103 87 147 24 44 56 99 71 121 16 23 43 68 60 100 18 33
43 73 56 90 13 17 23 36 23 42 0 7 4 12 8 12 5 0 17 16 28 35 10 19 22 35 27
35 4 0 6 4 2 9 -3 5 5 21 17 34 13 13 57 77 98 142 41 66 108 156 147 201 l73
82 227 -3 c126 -2 561 -7 968 -11z m2375 -19 c1137 -9 1443 -14 1451 -27 4 -6
6 -174 4 -372 -1 -199 -6 -782 -9 -1296 -4 -514 -9 -940 -11 -947 -2 -6 -30
-14 -62 -18 -117 -13 -257 -36 -275 -46 -13 -7 -98 -9 -236 -7 l-217 4 -89 38
c-109 45 -130 45 -134 -5 l-3 -36 -712 3 c-392 2 -1198 6 -1792 9 -594 3
-1444 6 -1890 6 -445 1 -812 3 -816 5 -3 1 -2 38 2 81 6 59 5 83 -6 99 -9 15
-11 32 -4 65 8 42 24 141 36 224 3 22 8 45 12 50 4 6 13 37 21 70 7 33 18 71
25 85 7 14 16 43 20 65 4 22 12 46 17 53 6 7 12 24 14 39 1 15 7 36 12 47 5
12 32 75 58 140 27 66 74 169 104 230 l55 111 360 -2 c1063 -7 1781 -16 1787
-21 4 -4 2 -27 -3 -52 -13 -54 -6 -240 10 -291 6 -20 20 -46 31 -59 11 -13 20
-27 20 -32 0 -5 21 -18 48 -30 39 -18 66 -22 157 -22 101 -1 120 2 230 37 116
38 336 136 460 206 128 72 191 104 220 110 25 6 30 12 31 39 1 17 6 38 13 46
10 11 10 20 1 37 -7 12 -8 19 -3 16 9 -6 1387 -19 2095 -21 344 -1 413 2 397
19 -6 5 -872 13 -2394 21 -665 3 -1211 9 -1213 13 -1 5 2 27 8 50 5 22 15 60
21 83 5 23 14 47 18 53 4 5 11 19 14 30 18 68 62 174 86 209 16 23 48 79 71
126 24 47 53 95 64 108 11 12 29 37 40 56 41 67 80 122 113 160 18 22 33 45
33 51 0 7 15 25 33 42 17 16 55 54 83 84 62 66 148 139 163 139 7 0 -9 -27
-34 -60 -25 -33 -41 -60 -36 -60 19 0 62 42 137 135 41 50 80 97 88 107 13 14
41 16 263 12 136 -2 592 -6 1013 -9z m-4030 -595 c0 -5 -2 -10 -4 -10 -3 0 -8
5 -11 10 -3 6 -1 10 4 10 6 0 11 -4 11 -10z m6527 -721 c17 -6 37 -17 44 -25
10 -12 -6 -14 -120 -12 -72 2 -131 6 -131 10 0 3 26 15 58 26 56 19 86 19 149
1z m-3599 -43 c7 -8 -44 -57 -81 -79 -23 -13 -73 -42 -112 -64 -211 -121 -429
-222 -524 -242 -30 -6 -93 -14 -140 -18 -75 -5 -92 -3 -126 15 -56 28 -82 60
-106 128 -18 49 -20 73 -15 144 3 47 8 94 11 106 l7 21 541 -4 c298 -3 543 -6
545 -7z m3915 -33 c-11 -31 -35 -63 -47 -63 -10 0 -36 44 -36 61 0 8 29 15 67
18 17 1 21 -3 16 -16z m-6692 -1328 c492 -3 1405 -8 2029 -10 624 -3 1399 -7
1721 -9 l587 -4 77 -31 c42 -17 84 -31 93 -31 9 -1 28 -7 42 -14 25 -14 24
-14 -35 -41 -112 -49 -338 -179 -389 -222 -116 -100 -132 -121 -201 -258 -14
-27 -25 -59 -25 -70 0 -11 -7 -31 -16 -44 -9 -12 -17 -36 -19 -52 -1 -15 -7
-35 -14 -42 -6 -8 -19 -46 -29 -85 -26 -101 -31 -105 -117 -97 -53 5 -82 2
-115 -10 -128 -45 -160 -54 -220 -58 -64 -5 -146 -14 -365 -42 -84 -10 -191
-12 -455 -8 -404 7 -466 6 -493 -9 -89 -47 -341 -50 -682 -8 l-242 30 -364
-11 c-488 -15 -740 -13 -859 7 -111 18 -576 35 -760 28 -117 -5 -187 -13 -269
-30 -30 -6 -34 -5 -27 11 3 10 9 41 12 69 3 28 9 65 15 81 5 17 11 57 14 90 8
103 16 157 36 250 43 197 48 222 54 280 19 171 83 370 114 350 4 -2 410 -6
902 -10z m5749 -57 c36 -6 99 -26 140 -43 41 -18 86 -36 100 -40 35 -11 117
-53 124 -64 4 -5 -5 -22 -20 -38 -45 -49 -77 -111 -70 -138 4 -14 11 -25 17
-25 16 0 123 99 131 121 11 27 42 23 80 -9 18 -16 40 -31 49 -34 32 -12 136
-224 125 -254 -3 -7 5 -20 16 -31 11 -10 31 -43 44 -72 14 -30 36 -70 50 -89
25 -31 26 -42 31 -176 6 -136 7 -143 33 -174 l27 -33 84 17 c46 9 104 16 129
15 147 -4 271 1 346 14 100 17 240 19 334 4 36 -5 241 -12 457 -14 396 -4 611
-19 698 -49 96 -33 121 -38 208 -46 202 -18 440 -21 552 -7 61 7 157 15 215
16 58 1 141 6 185 11 44 5 150 11 235 15 85 3 241 9 345 13 371 14 499 9 720
-26 110 -18 234 -36 275 -40 74 -7 75 -8 72 -33 -2 -19 4 -33 22 -47 22 -17
26 -28 26 -72 l0 -52 -247 6 c-554 14 -2347 28 -3780 30 l-833 1 0 32 c0 18
-8 48 -17 68 -15 31 -21 35 -43 30 -40 -10 -45 -20 -34 -75 l11 -50 -566 2
-566 3 0 265 c0 354 2 748 4 785 1 17 4 95 7 176 l5 145 107 -13 c59 -8 136
-19 172 -25z m389 2 c9 -14 24 -33 34 -42 9 -10 17 -20 17 -23 0 -12 -29 -3
-53 15 -14 11 -53 34 -86 50 -34 17 -61 32 -61 33 0 1 30 0 67 -3 56 -5 69 -9
82 -30z m286 20 c2 -3 5 -62 6 -129 2 -111 5 -129 28 -175 33 -65 94 -100 156
-91 70 10 140 28 156 42 8 7 23 13 32 13 9 0 32 8 52 17 75 36 10 69 -77 40
-24 -8 -80 -18 -126 -22 -98 -8 -132 6 -132 55 0 25 10 36 83 83 86 56 114 80
159 135 l27 33 443 -1 c451 0 948 -4 1798 -14 261 -3 779 -8 1150 -11 371 -3
727 -7 790 -9 63 -3 177 -5 253 -5 l137 -1 12 -27 c6 -16 17 -53 25 -83 7 -30
16 -64 19 -75 3 -11 7 -53 10 -93 2 -40 8 -81 13 -90 8 -16 27 -129 23 -143
-1 -4 3 -33 8 -65 5 -33 12 -114 15 -182 3 -68 11 -134 17 -147 8 -18 8 -28
-1 -38 -14 -17 -17 -55 -7 -85 8 -23 7 -23 -61 -16 -90 8 -321 41 -375 53
-123 28 -623 21 -1123 -15 -455 -33 -558 -38 -775 -37 -227 2 -384 16 -430 38
-22 11 -68 20 -200 40 -19 3 -120 8 -225 11 -104 3 -237 9 -295 12 -58 4 -157
5 -220 2 -63 -3 -167 0 -230 7 -159 16 -258 16 -418 -3 -93 -11 -163 -14 -217
-9 -100 9 -99 9 -162 0 l-53 -8 0 45 c0 82 -64 253 -150 403 -38 66 -73 132
-79 146 -20 54 -81 137 -141 192 -61 57 -62 58 -46 82 22 34 20 45 -15 81 -44
46 -32 56 63 52 44 -2 81 -5 83 -8z m224 1 c22 -1 23 -2 9 -23 -14 -21 -73
-58 -126 -79 -24 -9 -24 -9 -17 43 4 29 11 56 16 59 5 3 28 4 52 3 23 -2 53
-3 66 -3z m9689 -321 c81 -58 149 -188 172 -329 19 -114 -7 -284 -55 -362 -71
-115 -151 -229 -161 -229 -7 0 -14 27 -18 61 -4 34 -13 78 -21 98 -11 32 -23
92 -40 214 -3 21 -9 46 -14 55 -5 9 -12 51 -15 92 -4 41 -14 94 -21 117 -8 23
-15 59 -16 80 -1 21 -9 46 -17 55 -19 23 -9 49 49 118 60 72 91 78 157 30z
m-4660 -1062 c3 -15 -4 -18 -46 -18 -46 0 -50 2 -45 21 5 17 12 20 47 17 29
-2 42 -8 44 -20z m5687 -28 c8 -26 -1 -40 -26 -40 -22 0 -26 29 -7 48 17 17
26 15 33 -8z m-35 -61 c0 -11 -30 -39 -41 -39 -14 0 -11 38 4 43 19 6 37 4 37
-4z m1570 -17 c0 -16 -108 -64 -128 -58 -12 4 -25 -1 -37 -14 -20 -22 -45 -27
-45 -7 0 6 14 29 32 50 31 37 32 37 105 37 40 0 73 -4 73 -8z m-19822 -500 c2
-14 -12 -49 -32 -83 -20 -33 -36 -63 -36 -65 0 -3 -6 -11 -12 -18 -7 -8 -50
-52 -96 -100 -46 -47 -87 -86 -92 -86 -10 0 -17 33 -25 126 -7 70 -6 73 27
120 66 93 257 169 266 106z m7548 -771 c-3 -5 -15 -7 -26 -4 -28 7 -25 13 6
13 14 0 23 -4 20 -9z"/>
<path d="M0 12070 c0 -9 75 -12 283 -11 155 1 353 0 440 -3 96 -3 157 -1 157
5 0 6 -24 10 -52 9 -29 0 -227 2 -440 5 -290 5 -388 3 -388 -5z"/>
<path d="M910 12060 c8 -5 38 -10 65 -10 36 0 46 3 35 10 -8 5 -37 10 -65 10
-36 0 -46 -3 -35 -10z"/>
<path d="M1057 12059 c7 -7 15 -10 18 -7 3 3 -2 9 -12 12 -14 6 -15 5 -6 -5z"/>
<path d="M1135 12060 c-4 -6 22 -10 72 -9 53 0 72 3 58 9 -28 12 -123 12 -130
0z"/>
<path d="M1300 12058 c0 -9 87 -11 295 -8 77 1 145 1 150 1 6 0 32 -2 59 -4
27 -2 63 0 80 4 23 5 8 8 -54 10 -189 6 -530 4 -530 -3z"/>
<path d="M1947 12053 c18 -2 50 -2 70 0 21 2 7 4 -32 4 -38 0 -55 -2 -38 -4z"/>
<path d="M2072 12054 c10 -9 827 -14 833 -4 3 5 -176 9 -417 9 -232 1 -419 -1
-416 -5z"/>
<path d="M2975 12050 c-4 -6 41 -9 120 -7 69 1 125 -1 125 -5 0 -5 12 -8 28
-7 27 1 27 1 2 8 -13 4 73 6 193 4 129 -1 219 2 222 7 4 6 -122 10 -339 10
-211 0 -347 -4 -351 -10z"/>
<path d="M3715 12049 c56 -11 377 -11 395 1 10 6 -61 9 -210 9 -147 -1 -211
-4 -185 -10z"/>
<path d="M4160 12050 c0 -10 29 -22 40 -15 13 8 330 13 330 5 0 -4 12 -6 28
-5 15 1 71 3 125 3 53 1 97 6 97 11 0 4 -139 8 -310 9 -170 0 -310 -3 -310 -8z"/>
<path d="M4820 12050 c-12 -8 -10 -10 8 -10 13 0 20 4 17 10 -7 12 -6 12 -25
0z"/>
<path d="M4867 12048 c-3 -10 8 -12 42 -9 35 3 41 6 26 12 -31 12 -62 10 -68
-3z"/>
<path d="M4967 12048 c-7 -4 1 -8 18 -9 17 0 72 -3 123 -5 52 -2 101 0 110 6
12 6 -12 10 -78 11 -52 1 -110 2 -128 3 -19 1 -39 -2 -45 -6z"/>
<path d="M5328 12053 c-16 -3 -28 -8 -28 -13 0 -4 149 -9 330 -9 225 -1 330 2
330 9 0 7 -90 10 -282 9 -156 -2 -292 0 -303 3 -11 2 -32 3 -47 1z"/>
<path d="M5255 12040 c-3 -5 1 -10 9 -10 9 0 16 5 16 10 0 6 -4 10 -9 10 -6 0
-13 -4 -16 -10z"/>
<path d="M5985 12041 c6 -5 145 -11 325 -14 173 -3 320 -6 325 -7 27 -6 75 1
75 10 0 7 -25 10 -62 9 -35 -1 -200 1 -368 5 -195 5 -301 4 -295 -3z"/>
<path d="M6720 12030 c0 -13 60 -13 80 0 11 7 2 10 -32 10 -27 0 -48 -4 -48
-10z"/>
<path d="M6855 12030 c-27 -4 -35 -9 -25 -13 9 -4 27 -5 40 -3 14 2 28 5 33 5
4 1 7 6 7 11 0 6 -3 9 -7 9 -5 -1 -26 -5 -48 -9z"/>
<path d="M6960 12020 c0 -5 9 -10 20 -10 11 0 20 5 20 10 0 6 -9 10 -20 10
-11 0 -20 -4 -20 -10z"/>
<path d="M7010 12021 c0 -5 150 -9 358 -9 196 0 344 3 327 8 -43 11 -685 12
-685 1z"/>
<path d="M7760 12020 c-27 -6 -18 -7 40 -8 51 0 67 3 50 8 -30 10 -44 10 -90
0z"/>
<path d="M7898 12013 c12 -2 32 -2 45 0 12 2 2 4 -23 4 -25 0 -35 -2 -22 -4z"/>
<path d="M8040 12010 c30 -5 244 -12 475 -16 231 -3 461 -8 510 -9 50 -1 272
-6 495 -10 223 -4 488 -9 590 -11 102 -2 322 -5 490 -8 168 -3 415 -7 550 -11
135 -3 396 -8 580 -10 184 -3 432 -7 550 -10 491 -13 850 -15 850 -5 0 6 -6
10 -12 11 -7 0 -119 2 -248 4 -129 2 -363 7 -520 10 -157 3 -393 8 -525 10
-767 11 -1012 15 -1120 20 -66 3 -304 8 -530 10 -225 3 -513 7 -640 10 -754
18 -1564 26 -1495 15z"/>
<path d="M13315 11921 c6 -5 182 -10 430 -12 482 -2 485 -2 466 10 -20 13
-909 15 -896 2z"/>
<path d="M14240 11921 c0 -12 123 -26 147 -17 30 12 -3 22 -77 24 -39 1 -70
-2 -70 -7z"/>
<path d="M14417 11924 c-18 -19 4 -22 146 -24 83 -1 165 -3 180 -4 16 -2 49 0
73 4 25 4 47 3 50 -1 2 -4 82 -7 177 -7 192 0 872 -9 1307 -17 157 -4 769 -8
1360 -10 1064 -3 2037 -11 2655 -20 176 -3 649 -7 1050 -10 402 -3 903 -7
1115 -10 212 -2 606 -7 875 -10 270 -3 632 -8 805 -10 173 -3 371 -5 440 -5
442 4 2042 0 2605 -5 765 -7 1555 -8 1562 -2 3 4 4 9 2 11 -7 7 -1463 17
-3054 21 -836 2 -1664 6 -1840 10 -176 3 -691 8 -1145 10 -454 3 -955 7 -1115
9 -159 3 -654 8 -1100 11 -445 3 -913 8 -1040 10 -126 3 -608 7 -1070 10
-1640 10 -2383 16 -2610 20 -126 2 -486 7 -800 10 -313 3 -581 8 -595 11 -14
2 -29 2 -33 -2z"/>
<path d="M11905 11779 c-9 -14 -2 -20 14 -10 8 6 9 11 3 15 -6 3 -14 1 -17 -5z"/>
<path d="M9 10739 c-8 -5 -12 -9 -9 -9 3 -1 221 -4 485 -7 264 -3 676 -8 915
-11 674 -8 1250 -8 1241 1 -5 5 -206 10 -447 12 -913 7 -1855 16 -2010 20 -88
2 -167 -1 -175 -6z"/>
<path d="M3273 10722 c-313 -1 -563 -6 -563 -11 0 -5 402 -9 917 -10 1017 -1
2410 -9 2688 -16 99 -3 378 -7 620 -10 242 -3 452 -7 468 -10 18 -3 27 0 27 9
0 10 -27 14 -122 15 -68 1 -197 3 -288 6 -369 10 -1299 19 -2195 22 -522 1
-959 4 -970 5 -11 2 -273 2 -582 0z"/>
<path d="M2670 10710 c0 -5 7 -10 15 -10 8 0 15 5 15 10 0 6 -7 10 -15 10 -8
0 -15 -4 -15 -10z"/>
<path d="M10577 10444 c-13 -13 -7 -24 14 -24 11 0 19 5 17 12 -5 14 -22 21
-31 12z"/>
<path d="M8273 8343 c-18 -7 -16 -33 2 -33 8 0 15 9 15 20 0 11 -1 20 -2 19
-2 0 -9 -3 -15 -6z"/>
<path d="M22893 4775 c4 -8 2 -17 -3 -20 -6 -4 -10 -14 -10 -23 0 -13 4 -12
19 7 19 25 18 51 -1 51 -6 0 -8 -7 -5 -15z"/>
<path d="M5455 4129 c-4 -6 -4 -13 -1 -16 8 -8 36 5 36 17 0 13 -27 13 -35 -1z"/>
<path d="M26802 3923 c4 -22 43 -25 43 -3 0 8 -11 16 -23 18 -19 3 -23 0 -20
-15z"/>
<path d="M19477 3503 c-13 -12 -7 -33 8 -33 8 0 15 9 15 20 0 20 -11 26 -23
13z"/>
<path d="M11713 3335 c-23 -19 -45 -35 -50 -35 -14 0 -155 -156 -175 -193 -21
-38 -22 -95 -4 -119 7 -10 27 -21 45 -24 33 -7 50 -22 34 -33 -5 -3 -30 -42
-56 -86 -70 -119 -64 -186 23 -233 39 -20 54 -23 111 -19 65 6 90 14 208 70
58 28 81 53 81 88 0 14 -49 11 -120 -10 -97 -28 -157 -41 -190 -41 -26 0 -30
4 -30 28 0 46 82 189 162 283 35 42 47 63 44 80 -3 13 -5 27 -5 32 -2 16 -57
5 -80 -17 -27 -25 -101 -43 -101 -24 0 20 86 129 161 205 25 25 30 37 25 57
-9 36 -34 33 -83 -9z"/>
<path d="M11115 2904 c-33 -12 -75 -23 -93 -23 -47 -1 -72 -17 -72 -46 0 -58
87 -61 197 -6 43 21 91 44 106 50 19 7 27 17 25 29 -5 27 -90 25 -163 -4z"/>
<path d="M6143 2660 c-40 -6 -80 -21 -201 -76 -44 -20 -53 -28 -50 -46 2 -15
13 -25 35 -32 27 -7 45 -4 105 22 106 45 162 62 232 69 105 10 132 29 79 57
-29 14 -126 18 -200 6z"/>
<path d="M0 998 c0 -12 79 -14 570 -14 313 0 564 3 557 8 -6 4 -7 8 -2 8 6 0
16 -5 22 -11 6 -6 66 -10 159 -9 184 1 234 1 712 -1 211 -1 385 0 387 2 2 3
46 2 97 -1 51 -3 222 -5 380 -5 159 0 288 -2 288 -5 0 -10 365 -5 372 5 5 6
12 5 20 -3 16 -16 70 -16 86 0 10 10 14 10 21 0 9 -15 312 -13 323 3 5 6 8 6
8 -1 0 -8 69 -12 228 -13 125 -1 394 -4 597 -6 204 -3 376 -5 383 -5 65 2 287
1 1332 -4 663 -3 1466 -5 1785 -5 319 0 609 -1 645 -2 36 -1 76 -2 90 -1 21 0
358 1 425 0 11 0 43 0 70 0 28 1 106 1 175 1 69 0 127 1 130 1 3 1 41 1 85 0
44 0 1158 -2 2475 -5 2435 -4 4661 -12 6060 -20 426 -3 780 -5 785 -5 18 1
1281 -12 1525 -15 129 -2 829 -6 1555 -10 726 -3 1583 -8 1905 -10 322 -2
1068 -5 1658 -7 589 -1 1072 -6 1072 -11 0 -4 5 -5 10 -2 12 7 320 7 1233 0
586 -5 597 -5 597 14 0 18 -9 20 -127 23 -166 4 -697 7 -2388 13 -2096 7
-5385 24 -5815 30 -336 5 -1339 14 -2265 20 -692 5 -7273 17 -8530 15 -1938
-2 -4423 5 -5280 15 -592 7 -1906 16 -3282 22 -986 5 -1133 4 -1133 -9z"/>
</g>
</svg>
