<svg xmlns="http://www.w3.org/2000/svg" xmlns:xlink="http://www.w3.org/1999/xlink" version="1.1" width="288.494pt" height="234.681pt" viewBox="0 0 288.494 234.681">
<path transform="matrix(1,0,0,-1,50.114,158.535)" stroke-width=".3985" stroke-linecap="butt" stroke-miterlimit="10" stroke-linejoin="miter" fill="none" stroke="#000000" d="M0 0 28.34679 113.38724 141.73403 141.73403 113.38724 28.34679Z"/>
<text xml:space="preserve" transform="matrix(1 0 -0 1 -.0000009536743 234.681)" font-size="9.9626" font-family="CMBX10" font-weight="bold"><tspan y="-65.155" x="3.321">X</tspan></text>
<text xml:space="preserve" transform="matrix(1 0 -0 1 -.0000009536743 234.681)" font-size="9.9626" font-family="CMR10"><tspan y="-65.155" x="11.982">(</tspan></text>
<text xml:space="preserve" transform="matrix(1 0 -0 1 -.0000009536743 234.681)" font-size="9.9626" font-family="CMBX10" font-weight="bold"><tspan y="-65.155" x="15.857">u</tspan></text>
<text xml:space="preserve" transform="matrix(1 0 -0 1 -.0000009536743 234.681)" font-size="6.9738" font-family="CMBX7" font-weight="bold"><tspan y="-63.66" x="22.222">0</tspan></text>
<text xml:space="preserve" transform="matrix(1 0 -0 1 -.0000009536743 234.681)" font-size="9.9626" font-family="CMMI10" font-style="italic"><tspan y="-65.155" x="27.234002">,</tspan></text>
<text xml:space="preserve" transform="matrix(1 0 -0 1 -.0000009536743 234.681)" font-size="9.9626" font-family="CMBX10" font-weight="bold"><tspan y="-65.155" x="31.661002">v</tspan></text>
<text xml:space="preserve" transform="matrix(1 0 -0 1 -.0000009536743 234.681)" font-size="6.9738" font-family="CMBX7" font-weight="bold"><tspan y="-63.66" x="37.708">0</tspan></text>
<text xml:space="preserve" transform="matrix(1 0 -0 1 -.0000009536743 234.681)" font-size="9.9626" font-family="CMR10"><tspan y="-65.155" x="42.72">)</tspan></text>
<text xml:space="preserve" transform="matrix(1 0 -0 1 -.0000038146974 234.681)" font-size="9.9626" font-family="CMBX10" font-weight="bold"><tspan y="-201.215" x="45.15">X</tspan></text>
<text xml:space="preserve" transform="matrix(1 0 -0 1 -.0000038146974 234.681)" font-size="9.9626" font-family="CMR10"><tspan y="-201.215" x="53.812">(</tspan></text>
<text xml:space="preserve" transform="matrix(1 0 -0 1 -.0000038146974 234.681)" font-size="9.9626" font-family="CMBX10" font-weight="bold"><tspan y="-201.215" x="57.687">u</tspan></text>
<text xml:space="preserve" transform="matrix(1 0 -0 1 -.0000038146974 234.681)" font-size="6.9738" font-family="CMBX7" font-weight="bold"><tspan y="-199.72" x="64.052">0</tspan></text>
<text xml:space="preserve" transform="matrix(1 0 -0 1 -.0000038146974 234.681)" font-size="9.9626" font-family="CMR10"><tspan y="-201.215" x="71.277">+</tspan></text>
<text xml:space="preserve" transform="matrix(1 0 -0 1 -.0000038146974 234.681)" font-size="9.9626" font-family="CMMI10" font-style="italic"><tspan y="-201.215" x="81.24">&#x03b4;</tspan></text>
<text xml:space="preserve" transform="matrix(1 0 -0 1 -.0000038146974 234.681)" font-size="9.9626" font-family="CMBX10" font-weight="bold"><tspan y="-201.215" x="86.045">u</tspan></text>
<text xml:space="preserve" transform="matrix(1 0 -0 1 -.0000038146974 234.681)" font-size="9.9626" font-family="CMMI10" font-style="italic"><tspan y="-201.215" x="92.409999">,</tspan></text>
<text xml:space="preserve" transform="matrix(1 0 -0 1 -.0000038146974 234.681)" font-size="9.9626" font-family="CMBX10" font-weight="bold"><tspan y="-201.215" x="96.838">v</tspan></text>
<text xml:space="preserve" transform="matrix(1 0 -0 1 -.0000038146974 234.681)" font-size="6.9738" font-family="CMBX7" font-weight="bold"><tspan y="-199.72" x="102.883998">0</tspan></text>
<text xml:space="preserve" transform="matrix(1 0 -0 1 -.0000038146974 234.681)" font-size="9.9626" font-family="CMR10"><tspan y="-201.215" x="107.895999">)</tspan></text>
<text xml:space="preserve" transform="matrix(1 0 -0 1 -.000015258789 234.681)" font-size="9.9626" font-family="CMBX10" font-weight="bold"><tspan y="-102.002" x="167.02">X</tspan></text>
<text xml:space="preserve" transform="matrix(1 0 -0 1 -.000015258789 234.681)" font-size="9.9626" font-family="CMR10"><tspan y="-102.002" x="175.681">(</tspan></text>
<text xml:space="preserve" transform="matrix(1 0 -0 1 -.000015258789 234.681)" font-size="9.9626" font-family="CMBX10" font-weight="bold"><tspan y="-102.002" x="179.556">u</tspan></text>
<text xml:space="preserve" transform="matrix(1 0 -0 1 -.000015258789 234.681)" font-size="6.9738" font-family="CMBX7" font-weight="bold"><tspan y="-100.507999" x="185.921">0</tspan></text>
<text xml:space="preserve" transform="matrix(1 0 -0 1 -.000015258789 234.681)" font-size="9.9626" font-family="CMMI10" font-style="italic"><tspan y="-102.002" x="190.933">,</tspan></text>
<text xml:space="preserve" transform="matrix(1 0 -0 1 -.000015258789 234.681)" font-size="9.9626" font-family="CMBX10" font-weight="bold"><tspan y="-102.002" x="195.36">v</tspan></text>
<text xml:space="preserve" transform="matrix(1 0 -0 1 -.000015258789 234.681)" font-size="6.9738" font-family="CMBX7" font-weight="bold"><tspan y="-100.507999" x="201.407">0</tspan></text>
<text xml:space="preserve" transform="matrix(1 0 -0 1 -.000015258789 234.681)" font-size="9.9626" font-family="CMR10"><tspan y="-102.002" x="208.633">+</tspan></text>
<text xml:space="preserve" transform="matrix(1 0 -0 1 -.000015258789 234.681)" font-size="9.9626" font-family="CMMI10" font-style="italic"><tspan y="-102.002" x="218.595">&#x03b4;</tspan></text>
<text xml:space="preserve" transform="matrix(1 0 -0 1 -.000015258789 234.681)" font-size="9.9626" font-family="CMBX10" font-weight="bold"><tspan y="-102.002" x="223.4">v</tspan></text>
<text xml:space="preserve" transform="matrix(1 0 -0 1 -.000015258789 234.681)" font-size="9.9626" font-family="CMR10"><tspan y="-102.002" x="229.60599">)</tspan></text>
<text xml:space="preserve" transform="matrix(1 0 -0 1 0 234.68102)" font-size="9.9626" font-family="CMBX10" font-weight="bold"><tspan y="-223.889" x="195.366">X</tspan></text>
<text xml:space="preserve" transform="matrix(1 0 -0 1 0 234.68102)" font-size="9.9626" font-family="CMR10"><tspan y="-223.889" x="204.028">(</tspan></text>
<text xml:space="preserve" transform="matrix(1 0 -0 1 0 234.68102)" font-size="9.9626" font-family="CMBX10" font-weight="bold"><tspan y="-223.889" x="207.902">u</tspan></text>
<text xml:space="preserve" transform="matrix(1 0 -0 1 0 234.68102)" font-size="6.9738" font-family="CMBX7" font-weight="bold"><tspan y="-222.395" x="214.267">0</tspan></text>
<text xml:space="preserve" transform="matrix(1 0 -0 1 0 234.68102)" font-size="9.9626" font-family="CMR10"><tspan y="-223.889" x="221.493">+</tspan></text>
<text xml:space="preserve" transform="matrix(1 0 -0 1 0 234.68102)" font-size="9.9626" font-family="CMMI10" font-style="italic"><tspan y="-223.889" x="231.456">&#x03b4;</tspan></text>
<text xml:space="preserve" transform="matrix(1 0 -0 1 0 234.68102)" font-size="9.9626" font-family="CMBX10" font-weight="bold"><tspan y="-223.889" x="236.26">u</tspan></text>
<text xml:space="preserve" transform="matrix(1 0 -0 1 0 234.68102)" font-size="9.9626" font-family="CMMI10" font-style="italic"><tspan y="-223.889" x="242.625">,</tspan></text>
<text xml:space="preserve" transform="matrix(1 0 -0 1 0 234.68102)" font-size="9.9626" font-family="CMBX10" font-weight="bold"><tspan y="-223.889" x="247.053">v</tspan></text>
<text xml:space="preserve" transform="matrix(1 0 -0 1 0 234.68102)" font-size="6.9738" font-family="CMBX7" font-weight="bold"><tspan y="-222.395" x="253.09999">0</tspan></text>
<text xml:space="preserve" transform="matrix(1 0 -0 1 0 234.68102)" font-size="9.9626" font-family="CMR10"><tspan y="-223.889" x="260.326">+</tspan></text>
<text xml:space="preserve" transform="matrix(1 0 -0 1 0 234.68102)" font-size="9.9626" font-family="CMMI10" font-style="italic"><tspan y="-223.889" x="270.288">&#x03b4;</tspan></text>
<text xml:space="preserve" transform="matrix(1 0 -0 1 0 234.68102)" font-size="9.9626" font-family="CMBX10" font-weight="bold"><tspan y="-223.889" x="275.093">v</tspan></text>
<text xml:space="preserve" transform="matrix(1 0 -0 1 0 234.68102)" font-size="9.9626" font-family="CMR10"><tspan y="-223.889" x="281.29899">)</tspan></text>
<path transform="matrix(1,0,0,-1,50.114,158.535)" d="M1.99255 0C1.99255 1.10046 1.10046 1.99255 0 1.99255-1.10046 1.99255-1.99255 1.10046-1.99255 0-1.99255-1.10046-1.10046-1.99255 0-1.99255 1.10046-1.99255 1.99255-1.10046 1.99255 0ZM0 0"/>
<path transform="matrix(1,0,0,-1,50.114,158.535)" d="M30.33934 113.38724C30.33934 114.4877 29.44727 115.37979 28.34679 115.37979 27.24632 115.37979 26.35423 114.4877 26.35423 113.38724 26.35423 112.28676 27.24632 111.39468 28.34679 111.39468 29.44727 111.39468 30.33934 112.28676 30.33934 113.38724ZM28.34679 113.38724"/>
<path transform="matrix(1,0,0,-1,50.114,158.535)" d="M115.37979 28.34679C115.37979 29.44727 114.4877 30.33934 113.38724 30.33934 112.28676 30.33934 111.39468 29.44727 111.39468 28.34679 111.39468 27.24632 112.28676 26.35423 113.38724 26.35423 114.4877 26.35423 115.37979 27.24632 115.37979 28.34679ZM113.38724 28.34679"/>
<path transform="matrix(1,0,0,-1,50.114,158.535)" d="M143.72658 141.73403C143.72658 142.8345 142.8345 143.72658 141.73403 143.72658 140.63356 143.72658 139.74147 142.8345 139.74147 141.73403 139.74147 140.63356 140.63356 139.74147 141.73403 139.74147 142.8345 139.74147 143.72658 140.63356 143.72658 141.73403ZM141.73403 141.73403"/>
<path transform="matrix(1,0,0,-1,50.114,158.535)" stroke-width=".79701" stroke-linecap="butt" stroke-dasharray="2.98883,2.98883" stroke-miterlimit="10" stroke-linejoin="miter" fill="none" stroke="#000000" d="M113.38724 28.34679 141.56249 141.04779"/>
<path transform="matrix(.24251,-.97014,-.97014,-.24251,191.67649,17.487229)" stroke-width=".6376" stroke-linecap="round" stroke-linejoin="round" fill="none" stroke="#000000" d="M-1.55415 2.0722C-1.42464 1.29512 0 .1295 .38852 0 0-.1295-1.42464-1.29512-1.55415-2.0722"/>
<path transform="matrix(1,0,0,-1,50.114,158.535)" stroke-width=".79701" stroke-linecap="butt" stroke-dasharray="2.98883,2.98883" stroke-miterlimit="10" stroke-linejoin="miter" fill="none" stroke="#000000" d="M28.34679 113.38724 141.04779 141.56249"/>
<path transform="matrix(.97014,-.24251,-.24251,-.97014,191.16178,16.972519)" stroke-width=".6376" stroke-linecap="round" stroke-linejoin="round" fill="none" stroke="#000000" d="M-1.55415 2.0722C-1.42464 1.29512 0 .1295 .38852 0 0-.1295-1.42464-1.29512-1.55415-2.0722"/>
<text xml:space="preserve" transform="matrix(1 0 -0 1 0 234.681)" font-size="9.9626" font-family="CMMI10" font-style="italic"><tspan y="-143.553" x="114.247">&#x03b4;</tspan></text>
<text xml:space="preserve" transform="matrix(1 0 -0 1 0 234.681)" font-size="9.9626" font-family="CMBX10" font-weight="bold"><tspan y="-143.553" x="119.052">A</tspan></text>
<path transform="matrix(1,0,0,-1,50.114,158.535)" stroke-width=".3985" stroke-linecap="butt" stroke-miterlimit="10" stroke-linejoin="miter" fill="none" stroke="#000000" d="M.96642-3.8661C3.14095-6.4033 7.00706-7.4907 11.8397-6.28268L49.20132 3.05667C54.03395 4.2647 57.90005 3.1773 60.07462 .64009 60.7995 3.90208 63.69922 6.68074 68.53185 7.88876L105.89346 17.22815C110.72609 18.43617 113.6258 21.21486 114.35071 24.47684"/>
<text xml:space="preserve" transform="matrix(1 0 -0 1 -.0000076293949 234.681)" font-size="9.9626" font-family="CMMI10" font-style="italic"><tspan y="-67.986" x="110.327">&#x03b2;</tspan></text>
<path transform="matrix(1,0,0,-1,50.114,158.535)" stroke-width=".3985" stroke-linecap="butt" stroke-miterlimit="10" stroke-linejoin="miter" fill="none" stroke="#000000" d="M-3.8661 .96642C-6.4033 3.14095-7.4907 7.00706-6.28268 11.8397L3.05667 49.20132C4.2647 54.03395 3.1773 57.90005 .64009 60.07462 3.90208 60.7995 6.68074 63.69922 7.88876 68.53185L17.22815 105.89346C18.43617 110.72609 21.21486 113.6258 24.47684 114.35071"/>
<text xml:space="preserve" transform="matrix(1 0 -0 1 0 234.681)" font-size="9.9626" font-family="CMMI10" font-style="italic"><tspan y="-130.694" x="40.184">&#x03b1;</tspan></text>
<text xml:space="preserve" transform="matrix(1 0 -0 1 -.0000038146974 234.681)" font-size="9.9626" font-family="CMMI10" font-style="italic"><tspan y="-29.721" x="49.062">&#x03b1;</tspan></text>
<text xml:space="preserve" transform="matrix(1 0 -0 1 -.0000038146974 234.681)" font-size="9.9626" font-family="CMR10"><tspan y="-29.721" x="58.239">=</tspan></text>
<text xml:space="preserve" transform="matrix(1 0 -0 1 -.0000038146974 234.681)" font-size="9.9626" font-family="CMMI10" font-style="italic"><tspan y="-29.721" x="68.755">X</tspan></text>
<text xml:space="preserve" transform="matrix(1 0 -0 1 -.0000038146974 234.681)" font-size="9.9626" font-family="CMR10"><tspan y="-29.721" x="77.791">(</tspan></text>
<text xml:space="preserve" transform="matrix(1 0 -0 1 -.0000038146974 234.681)" font-size="9.9626" font-family="CMMI10" font-style="italic"><tspan y="-29.721" x="81.665">u</tspan></text>
<text xml:space="preserve" transform="matrix(1 0 -0 1 -.0000038146974 234.681)" font-size="6.9738" font-family="CMR7"><tspan y="-28.227002" x="87.368007">0</tspan></text>
<text xml:space="preserve" transform="matrix(1 0 -0 1 -.0000038146974 234.681)" font-size="9.9626" font-family="CMR10"><tspan y="-29.721" x="94.052">+</tspan></text>
<text xml:space="preserve" transform="matrix(1 0 -0 1 -.0000038146974 234.681)" font-size="9.9626" font-family="CMMI10" font-style="italic"><tspan y="-29.721" x="104.014 108.81597 114.52454 118.9579">&#x03b4;u,v</tspan></text>
<text xml:space="preserve" transform="matrix(1 0 -0 1 -.0000038146974 234.681)" font-size="6.9738" font-family="CMR7"><tspan y="-28.227002" x="123.779">0</tspan></text>
<text xml:space="preserve" transform="matrix(1 0 -0 1 -.0000038146974 234.681)" font-size="9.9626" font-family="CMR10"><tspan y="-29.721" x="128.249">)</tspan></text>
<text xml:space="preserve" transform="matrix(1 0 -0 1 -.0000038146974 234.681)" font-size="9.9626" font-family="CMSY10" font-style="italic"><tspan y="-29.721" x="134.33699">&#x2212;</tspan></text>
<text xml:space="preserve" transform="matrix(1 0 -0 1 -.0000038146974 234.681)" font-size="9.9626" font-family="CMMI10" font-style="italic"><tspan y="-29.721" x="144.29999">X</tspan></text>
<text xml:space="preserve" transform="matrix(1 0 -0 1 -.0000038146974 234.681)" font-size="9.9626" font-family="CMR10"><tspan y="-29.721" x="153.33499">(</tspan></text>
<text xml:space="preserve" transform="matrix(1 0 -0 1 -.0000038146974 234.681)" font-size="9.9626" font-family="CMMI10" font-style="italic"><tspan y="-29.721" x="157.20899">u</tspan></text>
<text xml:space="preserve" transform="matrix(1 0 -0 1 -.0000038146974 234.681)" font-size="6.9738" font-family="CMR7"><tspan y="-28.227002" x="162.91298">0</tspan></text>
<text xml:space="preserve" transform="matrix(1 0 -0 1 -.0000038146974 234.681)" font-size="9.9626" font-family="CMMI10" font-style="italic"><tspan y="-29.721" x="167.38198 171.81534">,v</tspan></text>
<text xml:space="preserve" transform="matrix(1 0 -0 1 -.0000038146974 234.681)" font-size="6.9738" font-family="CMR7"><tspan y="-28.227002" x="176.63898">0</tspan></text>
<text xml:space="preserve" transform="matrix(1 0 -0 1 -.0000038146974 234.681)" font-size="9.9626" font-family="CMR10"><tspan y="-29.721" x="181.10797 187.75304">)=</tspan></text>
<text xml:space="preserve" transform="matrix(1 0 -0 1 -.0000038146974 234.681)" font-size="9.9626" font-family="CMMI10" font-style="italic"><tspan y="-29.721" x="198.26598">X</tspan></text>
<text xml:space="preserve" transform="matrix(1 0 -0 1 -.0000038146974 234.681)" font-size="6.9738" font-family="CMMI7" font-style="italic"><tspan y="-28.227002" x="206.51998">v</tspan></text>
<text xml:space="preserve" transform="matrix(1 0 -0 1 -.0000038146974 234.681)" font-size="9.9626" font-family="CMMI10" font-style="italic"><tspan y="-29.721" x="211.25298 216.05496">&#x03b4;v</tspan><tspan y="-17.766" x="48.948976">&#x03b2;</tspan></text>
<text xml:space="preserve" transform="matrix(1 0 -0 1 -.0000038146974 234.681)" font-size="9.9626" font-family="CMR10"><tspan y="-17.766" x="57.876977">=</tspan></text>
<text xml:space="preserve" transform="matrix(1 0 -0 1 -.0000038146974 234.681)" font-size="9.9626" font-family="CMMI10" font-style="italic"><tspan y="-17.766" x="68.392978">X</tspan></text>
<text xml:space="preserve" transform="matrix(1 0 -0 1 -.0000038146974 234.681)" font-size="9.9626" font-family="CMR10"><tspan y="-17.766" x="77.42898">(</tspan></text>
<text xml:space="preserve" transform="matrix(1 0 -0 1 -.0000038146974 234.681)" font-size="9.9626" font-family="CMMI10" font-style="italic"><tspan y="-17.766" x="81.30298">u</tspan></text>
<text xml:space="preserve" transform="matrix(1 0 -0 1 -.0000038146974 234.681)" font-size="6.9738" font-family="CMR7"><tspan y="-16.272002" x="87.00598">0</tspan></text>
<text xml:space="preserve" transform="matrix(1 0 -0 1 -.0000038146974 234.681)" font-size="9.9626" font-family="CMMI10" font-style="italic"><tspan y="-17.766" x="91.47598 95.90934">,v</tspan></text>
<text xml:space="preserve" transform="matrix(1 0 -0 1 -.0000038146974 234.681)" font-size="6.9738" font-family="CMR7"><tspan y="-16.272002" x="100.73299">0</tspan></text>
<text xml:space="preserve" transform="matrix(1 0 -0 1 -.0000038146974 234.681)" font-size="9.9626" font-family="CMR10"><tspan y="-17.766" x="107.415988">+</tspan></text>
<text xml:space="preserve" transform="matrix(1 0 -0 1 -.0000038146974 234.681)" font-size="9.9626" font-family="CMMI10" font-style="italic"><tspan y="-17.766" x="117.37898 122.180957">&#x03b4;v</tspan></text>
<text xml:space="preserve" transform="matrix(1 0 -0 1 -.0000038146974 234.681)" font-size="9.9626" font-family="CMR10"><tspan y="-17.766" x="127.36998">)</tspan></text>
<text xml:space="preserve" transform="matrix(1 0 -0 1 -.0000038146974 234.681)" font-size="9.9626" font-family="CMSY10" font-style="italic"><tspan y="-17.766" x="133.45798">&#x2212;</tspan></text>
<text xml:space="preserve" transform="matrix(1 0 -0 1 -.0000038146974 234.681)" font-size="9.9626" font-family="CMMI10" font-style="italic"><tspan y="-17.766" x="143.42098">X</tspan></text>
<text xml:space="preserve" transform="matrix(1 0 -0 1 -.0000038146974 234.681)" font-size="9.9626" font-family="CMR10"><tspan y="-17.766" x="152.45598">(</tspan></text>
<text xml:space="preserve" transform="matrix(1 0 -0 1 -.0000038146974 234.681)" font-size="9.9626" font-family="CMMI10" font-style="italic"><tspan y="-17.766" x="156.33098">u</tspan></text>
<text xml:space="preserve" transform="matrix(1 0 -0 1 -.0000038146974 234.681)" font-size="6.9738" font-family="CMR7"><tspan y="-16.272002" x="162.03398">0</tspan></text>
<text xml:space="preserve" transform="matrix(1 0 -0 1 -.0000038146974 234.681)" font-size="9.9626" font-family="CMMI10" font-style="italic"><tspan y="-17.766" x="166.50298 170.93634">,v</tspan></text>
<text xml:space="preserve" transform="matrix(1 0 -0 1 -.0000038146974 234.681)" font-size="6.9738" font-family="CMR7"><tspan y="-16.272002" x="175.75998">0</tspan></text>
<text xml:space="preserve" transform="matrix(1 0 -0 1 -.0000038146974 234.681)" font-size="9.9626" font-family="CMR10"><tspan y="-17.766" x="180.22998 186.87505">)=</tspan></text>
<text xml:space="preserve" transform="matrix(1 0 -0 1 -.0000038146974 234.681)" font-size="9.9626" font-family="CMMI10" font-style="italic"><tspan y="-17.766" x="197.38698">X</tspan></text>
<text xml:space="preserve" transform="matrix(1 0 -0 1 -.0000038146974 234.681)" font-size="6.9738" font-family="CMMI7" font-style="italic"><tspan y="-16.272002" x="205.64098">u</tspan></text>
<text xml:space="preserve" transform="matrix(1 0 -0 1 -.0000038146974 234.681)" font-size="9.9626" font-family="CMMI10" font-style="italic"><tspan y="-17.766" x="210.84998 215.65196">&#x03b4;u</tspan><tspan y="-5.811001" x="68.25998 73.06195">&#x03b4;A</tspan></text>
<text xml:space="preserve" transform="matrix(1 0 -0 1 -.0000038146974 234.681)" font-size="9.9626" font-family="CMR10"><tspan y="-5.811001" x="83.30398">=</tspan></text>
<text xml:space="preserve" transform="matrix(1 0 -0 1 -.0000038146974 234.681)" font-size="9.9626" font-family="CMSY10" font-style="italic"><tspan y="-5.811001" x="93.82098">|</tspan></text>
<text xml:space="preserve" transform="matrix(1 0 -0 1 -.0000038146974 234.681)" font-size="9.9626" font-family="CMMI10" font-style="italic"><tspan y="-5.811001" x="96.587978">&#x03b1;</tspan></text>
<text xml:space="preserve" transform="matrix(1 0 -0 1 -.0000038146974 234.681)" font-size="9.9626" font-family="CMSY10" font-style="italic"><tspan y="-5.811001" x="105.211978">&#x00d7;</tspan></text>
<text xml:space="preserve" transform="matrix(1 0 -0 1 -.0000038146974 234.681)" font-size="9.9626" font-family="CMMI10" font-style="italic"><tspan y="-5.811001" x="115.17397">&#x03b2;</tspan></text>
<text xml:space="preserve" transform="matrix(1 0 -0 1 -.0000038146974 234.681)" font-size="9.9626" font-family="CMSY10" font-style="italic"><tspan y="-5.811001" x="121.33498">|</tspan></text>
<text xml:space="preserve" transform="matrix(1 0 -0 1 -.0000038146974 234.681)" font-size="9.9626" font-family="CMR10"><tspan y="-5.811001" x="126.86998">=</tspan></text>
<text xml:space="preserve" transform="matrix(1 0 -0 1 -.0000038146974 234.681)" font-size="9.9626" font-family="CMSY10" font-style="italic"><tspan y="-5.811001" x="137.38599">|</tspan></text>
<text xml:space="preserve" transform="matrix(1 0 -0 1 -.0000038146974 234.681)" font-size="9.9626" font-family="CMMI10" font-style="italic"><tspan y="-5.811001" x="140.15399">X</tspan></text>
<text xml:space="preserve" transform="matrix(1 0 -0 1 -.0000038146974 234.681)" font-size="6.9738" font-family="CMMI7" font-style="italic"><tspan y="-4.317001" x="148.407">u</tspan></text>
<text xml:space="preserve" transform="matrix(1 0 -0 1 -.0000038146974 234.681)" font-size="9.9626" font-family="CMMI10" font-style="italic"><tspan y="-5.811001" x="153.616 158.41799">&#x03b4;u</tspan></text>
<text xml:space="preserve" transform="matrix(1 0 -0 1 -.0000038146974 234.681)" font-size="9.9626" font-family="CMSY10" font-style="italic"><tspan y="-5.811001" x="166.338">&#x00d7;</tspan></text>
<text xml:space="preserve" transform="matrix(1 0 -0 1 -.0000038146974 234.681)" font-size="9.9626" font-family="CMMI10" font-style="italic"><tspan y="-5.811001" x="176.3">X</tspan></text>
<text xml:space="preserve" transform="matrix(1 0 -0 1 -.0000038146974 234.681)" font-size="6.9738" font-family="CMMI7" font-style="italic"><tspan y="-4.317001" x="184.554">v</tspan></text>
<text xml:space="preserve" transform="matrix(1 0 -0 1 -.0000038146974 234.681)" font-size="9.9626" font-family="CMMI10" font-style="italic"><tspan y="-5.811001" x="189.288 194.08998">&#x03b4;v</tspan></text>
<text xml:space="preserve" transform="matrix(1 0 -0 1 -.0000038146974 234.681)" font-size="9.9626" font-family="CMSY10" font-style="italic"><tspan y="-5.811001" x="199.27899">|</tspan></text>
</svg>
